<svg xmlns="http://www.w3.org/2000/svg" xmlns:xlink="http://www.w3.org/1999/xlink" width="425" height="239" viewBox="0 0 425 239">
  <defs>
    <clipPath id="clip-path">
      <rect id="Rectángulo_415" data-name="Rectángulo 415" width="425" height="239" fill="none"/>
    </clipPath>
    <clipPath id="clip-path-3">
      <rect id="Rectángulo_414" data-name="Rectángulo 414" width="265.1" height="185.68" transform="translate(0 53.3)" fill="none"/>
    </clipPath>
  </defs>
  <g id="Ilustración_61" data-name="Ilustración 61" transform="translate(212.5 119.5)">
    <g id="Grupo_295" data-name="Grupo 295" transform="translate(-212.5 -119.5)" clip-path="url(#clip-path)">
      <rect id="Rectángulo_412" data-name="Rectángulo 412" width="425" height="239" fill="#fff"/>
      <g id="Grupo_294" data-name="Grupo 294">
        <g id="Grupo_291" data-name="Grupo 291" opacity="0.6">
          <g id="Grupo_290" data-name="Grupo 290" clip-path="url(#clip-path)">
            <path id="Trazado_1331" data-name="Trazado 1331" d="M425,0V239H0S376.7,220.7,425,0" fill="#d8d8d8"/>
          </g>
        </g>
        <g id="Grupo_293" data-name="Grupo 293" opacity="0.6">
          <g id="Grupo_292" data-name="Grupo 292" clip-path="url(#clip-path-3)">
            <path id="Trazado_1332" data-name="Trazado 1332" d="M0,53.3V239H265.1S30.1,224.8,0,53.3" fill="#d8d8d8"/>
          </g>
        </g>
        <path id="Trazado_1333" data-name="Trazado 1333" d="M102.4,145.9a11.7,11.7,0,0,1-10,11.8,11.2,11.2,0,0,1-9.2-2.9.6.6,0,0,0-.7-.2,9,9,0,1,1,.1-16.8.5.5,0,0,0,.6-.1,11.5,11.5,0,0,1,19,6.1,19.8,19.8,0,0,1,.3,2m-20.6.4a9,9,0,0,0,2.6,6.3,8.7,8.7,0,0,0,6.2,2.7A9,9,0,0,0,94.8,138a8.8,8.8,0,0,0-9.5,1.3,9,9,0,0,1,3.2,6.8H85.8c-.4-3.4-2.3-5.7-5.1-6.3a6.4,6.4,0,0,0-6,10.8,6.2,6.2,0,0,0,6.4,1.7,11.4,11.4,0,0,1-1.7-6.1h2.5" fill="#2c3356"/>
        <path id="Trazado_1334" data-name="Trazado 1334" d="M149.2,151.4a4.7,4.7,0,0,1-2.8,1.5,4.8,4.8,0,0,1-5.4-3.3,5.6,5.6,0,0,1,1-5.7,4.6,4.6,0,0,1,7-.2h.1v-4.8c0-1.5.1-.5.5-.5h1.5c.3,0,.4.1.4.4v13.4c0,.3-.1.4-.4.4h-1.7c-.3,0-.4-.1-.4-.4v-1m-3-.6a3.2,3.2,0,1,0-3.1-3.2,3.2,3.2,0,0,0,3.1,3.2" fill="#2c3356"/>
        <path id="Trazado_1335" data-name="Trazado 1335" d="M188.6,151.3v1.3h-2.3v-14h2.3v5.2h.2a4.6,4.6,0,0,1,7.1.2,5.8,5.8,0,0,1-.9,8.1,4.6,4.6,0,0,1-6.2-.5l-.2-.2m3-7a3.2,3.2,0,1,0,3.1,3.2,3.1,3.1,0,0,0-3.1-3.2" fill="#2c3356"/>
        <path id="Trazado_1336" data-name="Trazado 1336" d="M128.6,148.3h-7.9a2.9,2.9,0,0,0,5.3,1.4c.2-.2.3-.3.6-.2l1.6.8a4.3,4.3,0,0,1-1.4,1.7,5.4,5.4,0,0,1-5.7.4,4.9,4.9,0,0,1-2.8-4.6,5.2,5.2,0,0,1,3.5-5.4,5.1,5.1,0,0,1,6.8,4.7v1.1m-2.4-1.8a2.718,2.718,0,0,0-5.4,0Z" fill="#2c3356"/>
        <path id="Trazado_1337" data-name="Trazado 1337" d="M200.4,148.3a2.9,2.9,0,0,0,5.3,1.4.4.4,0,0,1,.6-.1l1.6.8a4.7,4.7,0,0,1-1.3,1.6c-2.5,2-7.5,1.4-8.5-2.9a5.4,5.4,0,0,1,3.5-6.5,5,5,0,0,1,6.6,4.3,8.084,8.084,0,0,1,.1,1.6Zm5.5-1.8a2.6,2.6,0,0,0-2.7-2.4,2.8,2.8,0,0,0-2.7,2.4Z" fill="#2c3356"/>
        <path id="Trazado_1338" data-name="Trazado 1338" d="M155.6,145.7l-2.1-.5a3.8,3.8,0,0,1,1.4-2.1,5.3,5.3,0,0,1,5.4-.2,3.3,3.3,0,0,1,1.6,2.9v7h-2.1l-.2-.3a2.768,2.768,0,0,0-.1-.9,4.2,4.2,0,0,1-5.1.9,3,3,0,0,1-.3-4.9,5.8,5.8,0,0,1,2.9-1l2.2-.3c.2,0,.3-.1.3-.4a1.6,1.6,0,0,0-1.1-1.7,2.1,2.1,0,0,0-2.4.7l-.4.8m3.9,2.4-3.1.5-.4.2a1.2,1.2,0,0,0-.5,1.2,1.1,1.1,0,0,0,.8.9,2.6,2.6,0,0,0,2.5-.5,2.4,2.4,0,0,0,.7-2.3" fill="#2c3356"/>
        <path id="Trazado_1339" data-name="Trazado 1339" d="M130,142.4h2.3v1.2h.1a3.8,3.8,0,0,1,4.1-1.3,3.5,3.5,0,0,1,2.8,3.3c.1,2.3.1,4.6.1,6.9H137v-5.6a4.2,4.2,0,0,0-.1-.8,2.1,2.1,0,0,0-2-1.9,2.2,2.2,0,0,0-2.3,1.5,4.4,4.4,0,0,0-.3,1.4v5.4h-2.2l-.2-.2v-10" fill="#2c3356"/>
        <path id="Trazado_1340" data-name="Trazado 1340" d="M166.2,152.7h-2.4V142.4h2.3v1.3l.3-.3a3.8,3.8,0,0,1,4.2-1.1,3.5,3.5,0,0,1,2.5,3.1,7.9,7.9,0,0,1,.1,1.2c0,1.8,0,3.7,0,5.5v.5H171v-5.5a5.4,5.4,0,0,0-.1-1.1,2,2,0,0,0-1.8-1.7,2.2,2.2,0,0,0-2.3,1,3.4,3.4,0,0,0-.5,1.9q0,2.4,0,4.8v.5" fill="#2c3356"/>
        <path id="Trazado_1341" data-name="Trazado 1341" d="M175.2,142.4h2.3v5.5a6.8,6.8,0,0,0,.1.9,2.1,2.1,0,1,0,4.2-.1,17.7,17.7,0,0,0,.1-2.3v-4h2.4v6a6.3,6.3,0,0,1-.2,1.6c-.6,2.2-2.5,3.1-4.7,3l-1.5-.3a3.9,3.9,0,0,1-2.6-3.7c-.1-2.1,0-4.2,0-6.3h0" fill="#2c3356"/>
        <path id="Trazado_1342" data-name="Trazado 1342" d="M107.2,142.4h1.7v-3h2.4v3H113v2h-1.6v8.3h-2.5v-8.2h-1.7Z" fill="#2c3356"/>
        <path id="Trazado_1343" data-name="Trazado 1343" d="M116.8,152.7h-2.3V142.4h2.3Z" fill="#2c3356"/>
        <path id="Trazado_1344" data-name="Trazado 1344" d="M117.1,139.4a1.4,1.4,0,0,1-1.5,1.5,1.5,1.5,0,1,1,1.5-1.5" fill="#2c3356"/>
        <path id="Trazado_1345" data-name="Trazado 1345" d="M274.9,134.3c.9.3,1.1.7.8,1.6s.1.3.2.3a16.6,16.6,0,0,1,3.6,3.2,10.4,10.4,0,0,1,2.6,6,12.5,12.5,0,0,1-4.4,10.7,20.1,20.1,0,0,1-8.9,4.4,32.6,32.6,0,0,1-18.5-.8,17.3,17.3,0,0,1-7.8-5.2,11.7,11.7,0,0,1,2-17.4l1.1-.8c.1-.1.1-.1,0-.3a1,1,0,0,1,.5-1.6c.1-.1.2-.1.1-.2a1,1,0,0,1,.3-1.2,11.5,11.5,0,0,1,2.6-1.8,1.1,1.1,0,0,1,1.3.2l1.7,1.6a.6.6,0,0,0,.7.2,31.6,31.6,0,0,1,15.8-.1.6.6,0,0,0,.6-.2l1.6-1.5a1.2,1.2,0,0,1,1.5-.2,14.3,14.3,0,0,1,2.4,1.6,1.1,1.1,0,0,1,.3,1.5" fill="#2a3375"/>
        <path id="Trazado_1346" data-name="Trazado 1346" d="M300.6,142.9v2.8c0,1,0,.4-.3.4h-1.5c-.3,0-.3-.1-.3-.4v-5.2a1.5,1.5,0,0,0-2-1.6,1.6,1.6,0,0,0-1.3,1.7q0,2.55,0,5.1c0,1.7-.1.4-.4.4h-1.4c-.3,0-.4-.1-.4-.4v-5.3a1.4,1.4,0,0,0-1.4-1.5,1.6,1.6,0,0,0-1.8,1.2,3.2,3.2,0,0,0-.1.7v4.9c0,1.6-.1.4-.4.4h-1.5c-.2,0-.3,0-.3-.3a57.579,57.579,0,0,1,.1-5.9,3.4,3.4,0,0,1,2.4-3,3.5,3.5,0,0,1,3.9.8c.2.2.3.1.4,0a3.6,3.6,0,0,1,4.1-.7,3.4,3.4,0,0,1,2.2,3.2,26.132,26.132,0,0,1,0,2.8Z" fill="#2a3375"/>
        <path id="Trazado_1347" data-name="Trazado 1347" d="M342.2,138v-2.5a1.8,1.8,0,0,1,2.3-1.7c.2.1.2.2.2.3v8a3.7,3.7,0,0,1-3.4,4,6.2,6.2,0,0,1-3-.2,3.6,3.6,0,0,1-2.4-3,6.8,6.8,0,0,1,.3-3.8,3.6,3.6,0,0,1,4.1-2.4,2.9,2.9,0,0,1,2,1.3" fill="#2a3375"/>
        <path id="Trazado_1348" data-name="Trazado 1348" d="M307.3,142.1h-2.9c-.3,0-.4.1-.3.4a2.3,2.3,0,0,0,3.8,1.2h2.3c.3,0,.3.1.2.3a3.8,3.8,0,0,1-2.1,2,5.3,5.3,0,0,1-4.2-.1,3.8,3.8,0,0,1-2.3-2.9,7.2,7.2,0,0,1,0-2.7,4.3,4.3,0,0,1,4.7-3.6,4.2,4.2,0,0,1,4.2,4.4c0,1,0,1-.9,1h-2.4" fill="#2a3375"/>
        <path id="Trazado_1349" data-name="Trazado 1349" d="M319.7,157.4a3.7,3.7,0,0,1-2.1,2.2,5.2,5.2,0,0,1-4.6-.2,3.8,3.8,0,0,1-2.1-3,7.3,7.3,0,0,1,.1-2.7,4.1,4.1,0,0,1,3.8-3.3h1.7a4.1,4.1,0,0,1,3.2,4v.9c0,.3-.1.4-.4.4h-5.7c-.4,0-.5.1-.4.5a1.8,1.8,0,0,0,1.3,1.6,2.3,2.3,0,0,0,2.3-.4.5.5,0,0,1,.4-.2h2.3" fill="#2a3375"/>
        <path id="Trazado_1350" data-name="Trazado 1350" d="M335,141.1v1.8a3,3,0,0,1-2.2,3,7.5,7.5,0,0,1-3.8.2,2.4,2.4,0,0,1-2.1-2.2,2.7,2.7,0,0,1,1.6-2.9,9.4,9.4,0,0,1,2.6-.5l1-.2a.7.7,0,0,0,.5-.7.8.8,0,0,0-.6-.8,3,3,0,0,0-1.6-.1,1.1,1.1,0,0,0-.9.9c-.1.3-.2.4-.5.3h-1.6c-.3,0-.4,0-.3-.3a2.9,2.9,0,0,1,2.5-2.7,6.4,6.4,0,0,1,3.6.2,2.3,2.3,0,0,1,1.7,2.4q0,.9,0,1.8" fill="#2a3375"/>
        <path id="Trazado_1351" data-name="Trazado 1351" d="M324.9,140.1h-.3c-.6,0-.9,0-1.2-.7a1.8,1.8,0,0,0-3.2.5,5.3,5.3,0,0,0,0,3,1.8,1.8,0,0,0,2.6,1.1,1.3,1.3,0,0,0,.7-1c.1-.4.2-.4.6-.4h1.6c.5,0,.5.2.4.5a4,4,0,0,1-3.5,3.1h-1.9a4,4,0,0,1-3.4-3.9,7.1,7.1,0,0,1,.2-2.4,4.1,4.1,0,0,1,4.1-3.1,6,6,0,0,1,2.5.4,3.2,3.2,0,0,1,2,2.8c0,.2,0,.2-.2.2h-1.1" fill="#2a3375"/>
        <path id="Trazado_1352" data-name="Trazado 1352" d="M289.8,153.7v5.7c0,.4-.1.4-.4.4h-1.5c-.2,0-.3,0-.3-.3V149.2a1.9,1.9,0,0,1,2.1-1.6c.3.1.2.3.2.4v5.7" fill="#2a3375"/>
        <path id="Trazado_1353" data-name="Trazado 1353" d="M311.7,143a19.7,19.7,0,0,1,.1-2.7,4.2,4.2,0,0,1,3.9-3.6h1c.2,0,.3,0,.3.3v1.9c0,.6-.1.3-.3.3h-1.2a1.7,1.7,0,0,0-1.3,1.4,5.5,5.5,0,0,0-.1,1.1c0,1.3,0,2.7,0,4s-.1.4-.4.4h-1.6c-.4,0-.4-.1-.4-.4v-2.6" fill="#2a3375"/>
        <path id="Trazado_1354" data-name="Trazado 1354" d="M305.4,157a20.494,20.494,0,0,1,.1-2.8,4.3,4.3,0,0,1,4.3-3.6c.9-.1.9-.1.9.8v1.3c0,.4-.1.4-.4.3h-.4a1.9,1.9,0,0,0-2.1,2c0,1.5,0,2.9,0,4.4s0,.5-.5.5h-1.6c-.3,0-.4-.1-.4-.4V157" fill="#2a3375"/>
        <path id="Trazado_1355" data-name="Trazado 1355" d="M291.6,155.4v-4.2c0-1.4.1-.4.4-.4h1.7c.3,0,.4,0,.4.3v8.4c0,.3,0,.4-.3.4H292c-.3,0-.3-.1-.3-.4v-4.2" fill="#2a3375"/>
        <path id="Trazado_1356" data-name="Trazado 1356" d="M292.8,147.6c.4,0,.9-.2,1.1.1s.1.7.1,1.1.2.9-.1,1.1-.7.1-1.1.1-.9.2-1.1-.1-.1-.7-.1-1.1-.2-.9.1-1.1.8,0,1.1-.1" fill="#2c3376"/>
        <path id="Trazado_1357" data-name="Trazado 1357" d="M266.9,148.8a35.2,35.2,0,0,1,7.4-2.5,19.6,19.6,0,0,1,6.6-.4.265.265,0,0,1,.3.3,9.8,9.8,0,0,1-2.5,6l-.2.2a1.5,1.5,0,0,0-1.8-.7,37.2,37.2,0,0,1-12,.6l-2-.2a1.7,1.7,0,0,1-1.5-2.2,12.5,12.5,0,0,1,1.1-3.2c1.2-2.6,2.2-5.2,3.4-7.8a15.4,15.4,0,0,1,3.2-4.6l2.3-2.3a.6.6,0,0,1,.8-.1l2,1.4a.5.5,0,0,1,.1.8l-.9.9a2,2,0,0,1-1.3-.1c-.1-.1,0-.2.1-.4a.3.3,0,0,1,.4-.2l.4.2c-.1-.3.1-.3.3-.4s-.3-.6-.5-.9-.1.7-.5.7-.5-.3-.7-.5,0,.1,0,.2a1.27,1.27,0,0,1-.2,1.4l-1.1,1.1c-.1.1-.2.1-.1.2h.2a1,1,0,0,0,.8-.5,1,1,0,0,1,1.5-.4.8.8,0,0,0,.8-.1,3.1,3.1,0,0,1,1.5-.4c.1,0,.3,0,.3.1a.3.3,0,0,1-.2.4h-.4a11.3,11.3,0,0,0-3.2.9,2.5,2.5,0,0,1-1.6.2.8.8,0,0,0-1,.5,11.2,11.2,0,0,0-1.2,5.1,19.8,19.8,0,0,1-.2,4.8,11.5,11.5,0,0,1-.5,1.4" fill="#fff"/>
        <path id="Trazado_1358" data-name="Trazado 1358" d="M251.3,136.4l-1.1-1.2c-.6-.7-.9-.6-.3-1.8l-.5.4c-.4.3-.5.3-.6-.2s0-.2-.1-.3.2.8-.4.8.4.1.2.5.8-.3,1,.1.1.2,0,.2a1.7,1.7,0,0,1-1.3,0,4.3,4.3,0,0,1-.9-.9.4.4,0,0,1,.1-.7l.2-.2,1.8-1.3a.6.6,0,0,1,.9.1l3.1,3.2a12.4,12.4,0,0,1,2,3c1.6,3.2,2.9,6.6,4.3,9.9a7,7,0,0,1,.5,2,1.7,1.7,0,0,1-1.5,2,43.6,43.6,0,0,1-14.2-.4,1.5,1.5,0,0,0-1.5.3.188.188,0,0,1-.3,0,9,9,0,0,1-2.2-5.6c0-.3.1-.4.4-.4a18.7,18.7,0,0,1,6.3.4,31,31,0,0,1,6.9,2.3h.4c-.9-2.1-.7-4.2-.7-6.4a11.5,11.5,0,0,0-1.2-4.9.8.8,0,0,0-1-.5,3,3,0,0,1-2-.4,8.9,8.9,0,0,0-2.4-.7l-.8-.2a.3.3,0,0,1-.2-.3c0-.1.2-.1.3-.1a2.8,2.8,0,0,1,1.4.4,1,1,0,0,0,1,.1c.7-.3.7-.2,1.2.3s.6.7,1.2.5" fill="#fff"/>
        <path id="Trazado_1359" data-name="Trazado 1359" d="M260.6,151.5a2.9,2.9,0,0,0,2.5,1.4,53.4,53.4,0,0,0,7.9.3,36.7,36.7,0,0,0,5.7-.8h.7a.7.7,0,0,1,.5.5c.1.2-.1.3-.2.4a19,19,0,0,1-7.3,4.2,29.9,29.9,0,0,1-21.7-1,16.8,16.8,0,0,1-5.1-3.5c-.1-.1-.3-.2-.2-.3a.5.5,0,0,1,.4-.3h.5a36.6,36.6,0,0,0,11.2.7l2.9-.2a2.7,2.7,0,0,0,2.3-1.4" fill="#f7ce00"/>
        <path id="Trazado_1360" data-name="Trazado 1360" d="M268.2,133.9h0a17.8,17.8,0,0,0-3.7,5.8c-1.2,2.6-2.3,5.3-3.4,8l-.4,1.2c-.5-1.8-1.4-3.3-2-5s-1.7-3.9-2.6-5.8a13.8,13.8,0,0,0-2.9-4.2c2.3-1.3,12.1-1.3,15.1-.1" fill="#f7ce00"/>
        <path id="Trazado_1361" data-name="Trazado 1361" d="M268.1,147.4a16.5,16.5,0,0,0,.2-4.1,11,11,0,0,1,.9-5.3c.1-.3.2-.4.6-.4a3.7,3.7,0,0,0,2.2-.5,9.4,9.4,0,0,1,2.6-.7h.3a13.4,13.4,0,0,1,5.7,6.2,8.9,8.9,0,0,1,.6,2.1c0,.2.1.3-.2.3-4.4-.5-8.5.6-12.5,2.1h-.3" fill="#f7ce00"/>
        <path id="Trazado_1362" data-name="Trazado 1362" d="M253.1,147.4l-3.2-1.1a23.8,23.8,0,0,0-8.1-1.1h-1.1c-.3,0-.4,0-.3-.3a9.1,9.1,0,0,1,1.2-3.5,14.1,14.1,0,0,1,4.9-4.8c.4-.2.7,0,1.1.1l1.9.7a3.1,3.1,0,0,0,2,.3.3.3,0,0,1,.4.2,10.8,10.8,0,0,1,1,4.9,19.1,19.1,0,0,0,.2,4.3c0,.1.1.1,0,.2" fill="#f7ce00"/>
        <path id="Trazado_1363" data-name="Trazado 1363" d="M304.3,153.2a3.7,3.7,0,0,0-2-2.3c-1.5-.7-2.7-.4-4.1.9h0v-3.7c0-1.2.1-.3-.1-.4a1.9,1.9,0,0,0-2.3,1.7c0,2.4,0,4.7,0,7.1a3.6,3.6,0,0,0,2.5,3.4,6.2,6.2,0,0,0,3,.2,3.6,3.6,0,0,0,3.1-2.9,6.8,6.8,0,0,0-.2-3.9m-2.4,3.8a1.7,1.7,0,0,1-1.6,1.2,1.8,1.8,0,0,1-1.9-1,3.4,3.4,0,0,1-.3-1.7,3.7,3.7,0,0,1,.2-1.4,1.9,1.9,0,0,1,1.8-1.3,1.7,1.7,0,0,1,2,1.1,4.3,4.3,0,0,1,0,3" fill="#2a3375"/>
        <path id="Trazado_1364" data-name="Trazado 1364" d="M342.3,141.6a3.2,3.2,0,0,1-.4,1.7,1.8,1.8,0,0,1-1.9,1,1.6,1.6,0,0,1-1.5-1.2,4.3,4.3,0,0,1,.1-3.3,1.7,1.7,0,0,1,1.5-1,1.8,1.8,0,0,1,1.7.9,3.7,3.7,0,0,1,.4,2" fill="#fff"/>
        <path id="Trazado_1365" data-name="Trazado 1365" d="M306,140.5h-1.7c-.1,0-.3.1-.3-.2a2.1,2.1,0,0,1,4-.2c.1.3,0,.4-.3.4H306" fill="#fff"/>
        <path id="Trazado_1366" data-name="Trazado 1366" d="M354.2,139.1a3.9,3.9,0,0,0-3.2-2.5h-1.5a4.1,4.1,0,0,0-3.9,2.9,6,6,0,0,0-.3,1.3,4.653,4.653,0,0,0,4.9,5.5,4,4,0,0,0,3.9-2.5,5.6,5.6,0,0,0,0-4.6m-2.3,3.9a1.9,1.9,0,0,1-1.8,1.2,1.8,1.8,0,0,1-1.9-1.2,4.2,4.2,0,0,1,0-3.4,1.8,1.8,0,0,1,1.9-1.1,1.9,1.9,0,0,1,1.8,1.2,4,4,0,0,1,.3,1.7,4.1,4.1,0,0,1-.3,1.6" fill="#2a3375"/>
        <path id="Trazado_1367" data-name="Trazado 1367" d="M315.4,154.4h-1.8c-.2,0-.3,0-.2-.2a2,2,0,1,1,4-.2c.1.3,0,.4-.3.4h-1.7" fill="#fdfdfd"/>
        <path id="Trazado_1368" data-name="Trazado 1368" d="M332.6,141.5a9.1,9.1,0,0,1,0,1.3,2,2,0,0,1-2.5,1.6,1,1,0,0,1-.8-.9,1.1,1.1,0,0,1,.6-1.2l1.1-.3a4.7,4.7,0,0,0,1.6-.5" fill="#fff"/>
        <path id="Trazado_1369" data-name="Trazado 1369" d="M54.2,98v16.6l-1.6,1-1.6-1V98.1l-4.2,2.6v14.2l5.8,3.6,5.9-3.6V100.6Zm-1.6-8.7L40.3,96.8V111l3.2,1.9V98.7l9.1-5.5,9.1,5.5h0v14.1l3.2-1.9V96.8Z" fill="#f37b20"/>
        <path id="Trazado_1370" data-name="Trazado 1370" d="M83.6,110.4l-.8-10.8-4.3,10.9H77.1L72.8,99.6,72,110.4H70.2l1.1-13.6h2.3L77.8,108l4.3-11.2h2.2l1.1,13.6Z" fill="#231f0e"/>
        <path id="Trazado_1371" data-name="Trazado 1371" d="M92.6,105.6c-3.5.3-4.2,1.3-4.2,2.2a1.2,1.2,0,0,0,1.4,1.3,4,4,0,0,0,2.8-1.3Zm.3,4.8-.2-1.3a4.4,4.4,0,0,1-3.3,1.5,2.5,2.5,0,0,1-2.8-2.6c0-2.3,2-3.3,5.9-3.7v-.4c0-1.2-.7-1.6-1.8-1.6a8.1,8.1,0,0,0-3.3.8l-.2-1.5a9.1,9.1,0,0,1,3.6-.8c2.3,0,3.4.9,3.4,3v6.6Z" fill="#231f0e"/>
        <path id="Trazado_1372" data-name="Trazado 1372" d="M99.6,102.1a1.9,1.9,0,0,0-1.9,2.1,1.8,1.8,0,0,0,1.9,1.9,2,2,0,1,0,0-4M97,111.4c0,.8,1,1.3,2.8,1.3s2.9-.6,2.9-1.4-.4-1-1.8-1.2l-1.1-.2-1.2-.2c-1.1.6-1.6,1.1-1.6,1.8m7.4-10.6.3,1.6-1.8.2a2.8,2.8,0,0,1,.4,1.5,3.3,3.3,0,0,1-3.6,3.2H99c-.3.2-.5.4-.5.6s.3.4,2,.7h.7c2,.4,3.2,1,3.2,2.4s-2.1,2.9-4.6,2.9-4.4-.8-4.4-2.4.7-1.7,2-2.4a1.2,1.2,0,0,1-.6-1c0-.5.4-.9,1-1.3a3.1,3.1,0,0,1-1.8-2.8,3.4,3.4,0,0,1,3.6-3.3,3.8,3.8,0,0,1,2.4.8Z" fill="#231f0e"/>
        <path id="Trazado_1373" data-name="Trazado 1373" d="M108.7,102.2c-1.1,0-2,.8-2.3,2.4H111c-.2-1.5-.9-2.4-2.2-2.4m4,3.7h-6.4c.1,2.2,1.1,3.2,2.7,3.2a5.2,5.2,0,0,0,3.4-1.3l.3,1.6a5.9,5.9,0,0,1-3.8,1.3c-2.4,0-4.4-1.5-4.4-4.9s1.8-4.9,4.1-4.9,4,2.1,4,4.7Z" fill="#231f0e"/>
        <path id="Trazado_1374" data-name="Trazado 1374" d="M120.1,110.4V104c0-1-.4-1.6-1.4-1.6a4,4,0,0,0-2.7,1.5v6.5h-1.8V101h1.4l.2,1.4a5.1,5.1,0,0,1,3.3-1.6,2.5,2.5,0,0,1,2.7,2.8v6.8Z" fill="#231f0e"/>
        <path id="Trazado_1375" data-name="Trazado 1375" d="M127.1,110.6c-1.7,0-2.7-.6-2.7-2.5v-5.6H123V101h1.4V97.9l1.7-.3V101h2l.2,1.5H126v5.3c0,.8.3,1.2,1.3,1.2h.8l.2,1.5H127" fill="#231f0e"/>
        <path id="Trazado_1376" data-name="Trazado 1376" d="M132.9,102.3c-1.7,0-2.5,1.5-2.5,3.4s.9,3.4,2.5,3.4,2.6-1.5,2.6-3.4-.9-3.4-2.6-3.4m0,8.3c-2.5,0-4.3-1.8-4.3-4.9s1.8-4.9,4.3-4.9,4.4,1.8,4.4,4.9-1.9,4.9-4.4,4.9" fill="#231f0e"/>
        <path id="Trazado_1377" data-name="Trazado 1377" d="M138.5,100.7h-.2v.4h.2c.2,0,.2-.1.2-.2a.215.215,0,0,0-.2-.2m.4,1.2-.4-.6h-.1v.6h-.2v-1.4h.4c.3,0,.5.1.5.4a.4.4,0,0,1-.3.4l.4.6Zm-.4-1.7a1.1,1.1,0,1,0,1,1.1,1,1,0,0,0-1-1.1m0,2.3a1.1,1.1,0,0,1-1.2-1.2,1.2,1.2,0,1,1,1.2,1.2" fill="#231f0e"/>
        <path id="Trazado_1378" data-name="Trazado 1378" d="M213.2,106.1a2.7,2.7,0,0,1,0-.4,3.3,3.3,0,0,1,1.1-2.7,3.8,3.8,0,0,1,2.5-1,2.6,2.6,0,0,1,2.5,1.4Zm8.8-1.6a4.1,4.1,0,0,0-1.5-3.3,5.7,5.7,0,0,0-3.8-1.3,6.1,6.1,0,0,0-2.7.6,5.4,5.4,0,0,0-2.2,2,5.6,5.6,0,0,0-.9,3.1,5.3,5.3,0,0,0,1.7,4.1,5.7,5.7,0,0,0,4,1.6,6.3,6.3,0,0,0,4.7-2l-1.4-1.5a3.8,3.8,0,0,1-3.1,1.5,3.6,3.6,0,0,1-2.9-1.3l8.1-3.4Z" fill="#1f0047"/>
        <path id="Trazado_1379" data-name="Trazado 1379" d="M208.3,100.6a4.8,4.8,0,0,0-1.5,1.7v-2.2h-2.3v11.1h2.3v-4.7a4.8,4.8,0,0,1,.9-3,3.1,3.1,0,0,1,2.6-1.1h.1V99.9a3.7,3.7,0,0,0-2,.7" fill="#1f0047"/>
        <path id="Trazado_1380" data-name="Trazado 1380" d="M230.4,105.5l-1.1-.6-1-.4-1.2-.3-1.1-.4a.8.8,0,0,1-.5-.8,1,1,0,0,1,.5-.9,2.7,2.7,0,0,1,1.4-.3,5.2,5.2,0,0,1,2.9.9l.9-1.7a6.5,6.5,0,0,0-3.6-1.1,4.9,4.9,0,0,0-3.1.9,3,3,0,0,0-1.2,2.5q0,2.2,3.5,3.1h.3q2.2.7,2.2,1.5a1.1,1.1,0,0,1-.5.9,2,2,0,0,1-1.2.4,6.3,6.3,0,0,1-3.7-1.5l-1.1,1.8a7.5,7.5,0,0,0,2.3,1.2,7.8,7.8,0,0,0,2.5.4,4.5,4.5,0,0,0,2.9-.9,3.1,3.1,0,0,0,1.1-2.5,2.6,2.6,0,0,0-1.1-2.3" fill="#1f0047"/>
        <path id="Trazado_1381" data-name="Trazado 1381" d="M199.5,103.9a3.8,3.8,0,0,1-2.8.8h-2.9V98.8h2.5a5.4,5.4,0,0,1,2.9.6,2.4,2.4,0,0,1,.9,2.1,3.2,3.2,0,0,1-.7,2.3m1.7-6a7.5,7.5,0,0,0-4.8-1.3h-5V111h2.5v-4.3h2.6a7.6,7.6,0,0,0,4.8-1.2,4.6,4.6,0,0,0,1.6-3.9,4.8,4.8,0,0,0-1.5-3.9" fill="#1f0047"/>
        <path id="Trazado_1382" data-name="Trazado 1382" d="M236.9,109.3a1.5,1.5,0,0,1-1.2-.5,1.8,1.8,0,0,1-.4-1.3v-5.6h2.9V100h-2.9V96.6H233v10.9a3.7,3.7,0,0,0,1.1,2.8,3.5,3.5,0,0,0,2.5,1,4,4,0,0,0,2.7-1.1l-1-1.6a2,2,0,0,1-1.4.7" fill="#1f0047"/>
        <path id="Trazado_1383" data-name="Trazado 1383" d="M247.6,108.2a3.1,3.1,0,0,1-2.3,1,3.3,3.3,0,0,1-2.4-1,3.5,3.5,0,0,1-1-2.6,3.7,3.7,0,0,1,1-2.7,3.2,3.2,0,0,1,2.4-1.1,3,3,0,0,1,2.4,1.1,3.8,3.8,0,0,1,1,2.6,3.6,3.6,0,0,1-1,2.6m.9-6.3a4.2,4.2,0,0,0-3.6-2.1,5.3,5.3,0,0,0-3.8,1.5,5.4,5.4,0,0,0-1.6,4.1,5.7,5.7,0,0,0,1.6,4.2,5,5,0,0,0,3.7,1.6,4.6,4.6,0,0,0,2.1-.5,4.4,4.4,0,0,0,1.7-1.5v1.8H251V100.1h-2.3Z" fill="#1f0047"/>
        <path id="Trazado_1384" data-name="Trazado 1384" d="M285.4,108.2a3.6,3.6,0,0,1-5,0,3.9,3.9,0,0,1,0-5.2,3.6,3.6,0,0,1,5,0,3.9,3.9,0,0,1,0,5.2m-2.5-8.3a5.7,5.7,0,0,0-4.2,1.7,5.8,5.8,0,0,0,0,8.1,6.1,6.1,0,0,0,8.3,0,5.8,5.8,0,0,0,0-8.1,5.7,5.7,0,0,0-4.2-1.7" fill="#e2066f"/>
        <path id="Trazado_1385" data-name="Trazado 1385" d="M298.1,108.2a3.3,3.3,0,0,1-2.4,1,3.1,3.1,0,0,1-2.3-1,3.6,3.6,0,0,1-1-2.6,3.8,3.8,0,0,1,1-2.6,3.1,3.1,0,0,1,2.4-1.1,3.2,3.2,0,0,1,2.4,1.1,3.7,3.7,0,0,1,1,2.6,3.5,3.5,0,0,1-1,2.6m1.8-6.8a5.3,5.3,0,0,0-3.8-1.5,4.1,4.1,0,0,0-3.6,2.1v-1.9h-2.3v15.1h2.3v-5.7a4.9,4.9,0,0,0,7.4.2,5.7,5.7,0,0,0,1.6-4.2,5.5,5.5,0,0,0-1.6-4.1" fill="#e2066f"/>
        <path id="Trazado_1386" data-name="Trazado 1386" d="M271.6,99.9a4.3,4.3,0,0,0-2.2.6,3.7,3.7,0,0,0-1.5,1.6V95.7h-2.3v15.4H268v-6a2.913,2.913,0,0,1,3-3.1q2.5,0,2.5,3.1v6.1h2.3v-6.8a4.5,4.5,0,0,0-1.2-3.3,4.1,4.1,0,0,0-3-1.1" fill="#e2066f"/>
        <path id="Trazado_1387" data-name="Trazado 1387" d="M262.8,104.1a8,8,0,0,0-3.4-1.5,10.4,10.4,0,0,1-2.9-1,1.651,1.651,0,0,1,0-2.7,3.2,3.2,0,0,1,1.8-.4,6.7,6.7,0,0,1,2.2.4,5,5,0,0,1,1.7,1l1.3-1.9a7.2,7.2,0,0,0-2.4-1.3,8.7,8.7,0,0,0-2.8-.5,5.9,5.9,0,0,0-3.6,1.1,3.6,3.6,0,0,0-1.5,3.1,3.5,3.5,0,0,0,1.3,3,5.5,5.5,0,0,0,1.5.8l2.4.7a6.9,6.9,0,0,1,2.3.9,1.5,1.5,0,0,1,.7,1.3,1.6,1.6,0,0,1-.7,1.4,3.1,3.1,0,0,1-1.9.5,6.9,6.9,0,0,1-4.6-1.9l-1.5,1.9a8.8,8.8,0,0,0,6.1,2.4,5.7,5.7,0,0,0,3.8-1.2A3.8,3.8,0,0,0,264,107a3.6,3.6,0,0,0-1.1-2.9" fill="#e2066f"/>
        <path id="Trazado_1388" data-name="Trazado 1388" d="M170.2,109.9l.5-.2.6-.2.8-.2,1.1-.2-.7,2v.4l1.6-.2,1.6.2V111l-.7-2,1.1.2.8.2.6.2.5.2a9.8,9.8,0,0,1,3.4,2.5,11.3,11.3,0,1,0-14.8,0,9.8,9.8,0,0,1,3.4-2.5" fill="#a0dbe8"/>
        <path id="Trazado_1389" data-name="Trazado 1389" d="M171,111.9l1.7-.5V111l.7-2-1.1.2-.8.2-.6.2.8.2Z" fill="#525353"/>
        <path id="Trazado_1390" data-name="Trazado 1390" d="M169,113.2v-.6a.2.2,0,0,1,.2-.2h.2l.7-2.4a9.8,9.8,0,0,0-3.4,2.5l1.7,1.2.5-.5" fill="#525353"/>
        <path id="Trazado_1391" data-name="Trazado 1391" d="M178.2,109.9l.7,2.4h.2a.2.2,0,0,1,.2.2v.6l.5.5,1.7-1.2a9.8,9.8,0,0,0-3.4-2.5" fill="#525353"/>
        <path id="Trazado_1392" data-name="Trazado 1392" d="M176.8,109.9l.8-.2-.6-.2-.8-.2-1.1-.2.7,2v.4l1.7.5Z" fill="#525353"/>
        <path id="Trazado_1393" data-name="Trazado 1393" d="M174.2,112.3h1.6a6.3,6.3,0,0,1,0-.9l-1.6-.2-1.6.2a6.5,6.5,0,0,1,0,.9Z"/>
        <path id="Trazado_1394" data-name="Trazado 1394" d="M168.5,113.6l.4.2v-.7l-.5.5"/>
        <path id="Trazado_1395" data-name="Trazado 1395" d="M170.9,112.3h1.7a6.3,6.3,0,0,0,0-.9l-1.7.5Z"/>
        <path id="Trazado_1396" data-name="Trazado 1396" d="M179.4,113.2v.7l.4-.2-.5-.5"/>
        <path id="Trazado_1397" data-name="Trazado 1397" d="M177.5,112.3V112l-1.7-.5a6.4,6.4,0,0,0,0,.9Z"/>
        <path id="Trazado_1398" data-name="Trazado 1398" d="M170.9,112.3V112l.6-2.1-.8-.2-.5.2-.7,2.4Z" fill="#aa9678"/>
        <path id="Trazado_1399" data-name="Trazado 1399" d="M177.4,111.9v.3h1.4l-.7-2.4-.5-.2-.8.2Z" fill="#aa9678"/>
        <path id="Trazado_1400" data-name="Trazado 1400" d="M169.5,112.8h0" fill="#c0b098"/>
        <path id="Trazado_1401" data-name="Trazado 1401" d="M174.2,112.8h-4.7a6.9,6.9,0,0,1-.2,1.3,11.3,11.3,0,0,0,4.9,1.1Z" fill="#c0b098"/>
        <path id="Trazado_1402" data-name="Trazado 1402" d="M178.9,112.8h0" fill="#aa9678"/>
        <path id="Trazado_1403" data-name="Trazado 1403" d="M178.9,112.8h-4.7v2.4a11.3,11.3,0,0,0,4.9-1.1,6.8,6.8,0,0,1-.2-1.3h0" fill="#aa9678"/>
        <path id="Trazado_1404" data-name="Trazado 1404" d="M174.2,112.5h0v0Z" fill="#786453"/>
        <path id="Trazado_1405" data-name="Trazado 1405" d="M179.4,113.2v-.6a.2.2,0,0,0-.2-.2h-9.8a.2.2,0,0,0-.2.2q0,.3,0,.6v.7l.4.2a7,7,0,0,0,.2-1.3h9.4a6.9,6.9,0,0,0,.2,1.3l.4-.2v-.7" fill="#8b7460"/>
        <path id="Trazado_1406" data-name="Trazado 1406" d="M177.4,110.7h0" fill="#525353"/>
        <path id="Trazado_1407" data-name="Trazado 1407" d="M177.7,110.9h0l-.3-.3.3.3" fill="#aa9678"/>
        <line id="Línea_3" data-name="Línea 3" transform="translate(181.2 100.7)" fill="#fff"/>
        <path id="Trazado_1408" data-name="Trazado 1408" d="M181.6,104h0" fill="#fff"/>
        <path id="Trazado_1409" data-name="Trazado 1409" d="M181.7,101.3h0l-.3-.4h-.3V102l.4,1.8h0l.3.3h.3a7.9,7.9,0,0,0-.4-2.5h0" fill="#bbbcbd"/>
        <path id="Trazado_1410" data-name="Trazado 1410" d="M181.6,104h0" fill="#bbbcbd"/>
        <path id="Trazado_1411" data-name="Trazado 1411" d="M181.6,103.8h0l.3-.3-.3-.3h0" fill="#676a6a"/>
        <path id="Trazado_1412" data-name="Trazado 1412" d="M181.6,104.1h0v-.2H181v.2h0v.2h0c0,.4.2.8.5.8h.4m-.4-.3c-.1,0-.2-.1-.2-.3s.1-.3.2-.3.2.1.2.3-.1.3-.2.3"/>
        <path id="Trazado_1413" data-name="Trazado 1413" d="M181.2,103.3c.1,0,.2.1.2.3s-.1.3-.2.3-.2-.1-.2-.3.1-.3.2-.3" fill="#fff"/>
        <path id="Trazado_1414" data-name="Trazado 1414" d="M180.8,103.6h0v-.2h.6v.2l-.4-1.8Z" fill="#909393"/>
        <path id="Trazado_1415" data-name="Trazado 1415" d="M175.8,103.9h-.1l-.2-.2-.3-.2H174l-.2.2h-.1v.2h0v.2h0l.2.3.2.2h1.1l.3-.3v-.2a1.1,1.1,0,0,0,.1-.4h0m-1.1-.1a.4.4,0,1,1,.4-.4.4.4,0,0,1-.4.4"/>
        <path id="Trazado_1416" data-name="Trazado 1416" d="M174.8,103a.4.4,0,1,1-.4.4.4.4,0,0,1,.4-.4" fill="#fff"/>
        <path id="Trazado_1417" data-name="Trazado 1417" d="M174,103.2h0l.7-2.2v-.3H173a6.3,6.3,0,0,0-2.1.6,6.8,6.8,0,0,0-1.6,1h0l-.4.3h-.1l-.3.4h-.1l-.3.4h0l-.3.4h-.1l-.2.3h3.3Z" fill="#bbbcbd"/>
        <path id="Trazado_1418" data-name="Trazado 1418" d="M176.8,102.9v-1.7h-.4l-.5-.2-1.2-.4v.2h0v.3l.7,2.2h0l.2.2h1a9.9,9.9,0,0,0,.1-1h0" fill="#e2dddb"/>
        <path id="Trazado_1419" data-name="Trazado 1419" d="M178,102.1h0" fill="#fbb040"/>
        <path id="Trazado_1420" data-name="Trazado 1420" d="M175.8,107.2l.6-.6.3-.3a7,7,0,0,0,1.6-2.5h.1a9.2,9.2,0,0,0-.4-1.2h-.1l-.3-.2-.8-.6v.7h0v.9h0a9.9,9.9,0,0,1-.1,1v.5a15.7,15.7,0,0,1-1,2.5l-.3.7h0l.3-.3.2-.2" fill="#fbb040"/>
        <path id="Trazado_1421" data-name="Trazado 1421" d="M174,103.2h1.1l.3.2h0l-.7-2.2Z" fill="#909393"/>
        <path id="Trazado_1422" data-name="Trazado 1422" d="M173.8,104.4v-.2h0V104h.1l.2-.2-3.1.8h0l3.1.7-.2-.3h0" fill="#676a6a"/>
        <path id="Trazado_1423" data-name="Trazado 1423" d="M180.7,103.8h0l.4-1.8v-1.1a1.6,1.6,0,0,0-1-.4,1.8,1.8,0,0,0-1.2.6,4.6,4.6,0,0,0-.8,1.2h0l.2.2.4.4.2.2.2.2.3.3h.1l.3.4h.9v-.2" fill="#e2dddb"/>
        <path id="Trazado_1424" data-name="Trazado 1424" d="M178,102.1h0" fill="#e2dddb"/>
        <path id="Trazado_1425" data-name="Trazado 1425" d="M167,105.1h0l.2-.5h.1l.2-.3h.1l.2-.3h.1l.3-.4h0l.3-.4h.1l.3-.4h.1l.4-.3h0a4,4,0,0,1,6-2.3,4.1,4.1,0,0,1,1.5,1.7h0l.8.6.3.2h.1c.3-1.6,1-2.8,1.8-2.8s1.2.7,1.6,1.7h0l.3.4h0a7.906,7.906,0,0,0-15,5h0l.2-.7.2-.5" fill="#525353"/>
        <path id="Trazado_1426" data-name="Trazado 1426" d="M181.9,104l-.3.3h-.4c-.3,0-.5-.3-.5-.8h-.9l.5.6h0l.5.6h0l.4.6h0l.5.6h0a7.9,7.9,0,0,0,.4-2.5h-.3Z" fill="#fff"/>
        <path id="Trazado_1427" data-name="Trazado 1427" d="M173,100.3h1.7v-.2l1.2.4.5.2h.4a4.1,4.1,0,0,0-1.5-1.7,4,4,0,0,0-6,2.3,6.8,6.8,0,0,1,1.6-1,6.3,6.3,0,0,1,2.1-.6"/>
        <path id="Trazado_1428" data-name="Trazado 1428" d="M178.9,100.9a1.8,1.8,0,0,1,1.2-.6,1.6,1.6,0,0,1,1,.4h.3c-.4-1-.9-1.7-1.6-1.7s-1.6,1.2-1.8,2.8h0a4.6,4.6,0,0,1,.8-1.2"/>
        <path id="Trazado_1429" data-name="Trazado 1429" d="M171.4,111.3h.2a7.9,7.9,0,0,0,5.6-.1h-.3c-1.6-.2-2-1-1.9-1.8l-.4-.2a10.6,10.6,0,0,1-2-1.9,10.6,10.6,0,0,0,2.4,1.3h.1l.2-.7h0l.3-.7a15.8,15.8,0,0,0,1-2.5v-.5h-.9a1.1,1.1,0,0,1-.1.4v.2l-.3.3h-1.1l-.2-.2-3.1-.7h-3.5l-.2.3h-.1l-.2.5h0l-.2.5-.2.7a8,8,0,0,0,2.9,4h.1l.7.4,1,.5" fill="#fff"/>
        <path id="Trazado_1430" data-name="Trazado 1430" d="M176.9,108.8v.2a2.3,2.3,0,0,0,0,.4v.6l.2.3h.2l.3.3h.1l1.1-.3.5-.2h.2a13.8,13.8,0,0,0,3.3-2.4,10,10,0,0,1-6,.8" fill="#9f2255"/>
        <path id="Trazado_1431" data-name="Trazado 1431" d="M181.2,105.7l-.4-.6h0l-.5-.6h0l-.5-.6h0l-.3-.4h-.1l-.3-.3-.2-.2-.2-.2-.4-.4-.2-.2h0a9,9,0,0,1,.4,1.3v.3a5.3,5.3,0,0,1-1,3.7l-.2.3a3,3,0,0,0-.3.8v.3a10,10,0,0,0,6-.8l-1.1-1.6-.5-.6h0" fill="#e2066f"/>
        <path id="Trazado_1432" data-name="Trazado 1432" d="M177.7,110.9l-.3-.3h-.2l-.2-.3v-.6a2.3,2.3,0,0,1,0-.4v-.5a3,3,0,0,1,.3-.8h0l.2-.3a5.3,5.3,0,0,0,1-3.7v-.1h0a7,7,0,0,1-1.6,2.5l-.3.3-.6.6-.2.2-.3.3-.2.7H175a10.6,10.6,0,0,1-2.4-1.3,10.6,10.6,0,0,0,2,1.9l.4.2c-.1.8.3,1.6,1.9,1.8h.8"/>
        <path id="Trazado_1433" data-name="Trazado 1433" d="M333.8,90h45.7a5.2,5.2,0,0,1,5.2,5.2v17.4a5.2,5.2,0,0,1-5.2,5.2H363.1l2.2,5.5-9.9-5.5H333.9a5.2,5.2,0,0,1-5.2-5.2V95.2a5.2,5.2,0,0,1,5.2-5.2" fill="#9b5c8f"/>
        <path id="Trazado_1434" data-name="Trazado 1434" d="M331.8,94.8a1.8,1.8,0,0,1,1.4-.7,1.7,1.7,0,0,1,2,1.6q1.1,7.1,2.3,12.1l5-9.5a2.2,2.2,0,0,1,1.7-1.4c1-.1,1.6.6,1.9,1.9a42.6,42.6,0,0,0,2.2,7.8q.9-8.7,3-12.5a1.7,1.7,0,0,1,1.5-1,2,2,0,0,1,1.4.5,1.8,1.8,0,0,1,.7,1.3,2,2,0,0,1-.2,1.1,27.6,27.6,0,0,0-2.2,8.2,42.6,42.6,0,0,0-.6,8.7,2.7,2.7,0,0,1-.3,1.5,1.5,1.5,0,0,1-1.2.8,2.3,2.3,0,0,1-1.8-.8q-3.2-3.2-5-9.7l-3.3,6.6c-1.3,2.6-2.5,3.9-3.4,4s-1.1-.5-1.6-1.6q-1.7-4.5-3.8-17.3a1.9,1.9,0,0,1,.4-1.5m49,3.6a5.3,5.3,0,0,0-3.6-2.6H376c-2.2,0-4,1.1-5.4,3.4a12.1,12.1,0,0,0-1.8,6.4,8.8,8.8,0,0,0,1.1,4.5,5.3,5.3,0,0,0,3.6,2.6h1.2c2.2,0,4-1.1,5.4-3.4a12.2,12.2,0,0,0,1.8-6.5,8.4,8.4,0,0,0-1.1-4.5m-2.9,6.3a6,6,0,0,1-1.7,3.4,2.2,2.2,0,0,1-1.8.7c-.5-.1-1-.6-1.3-1.5a5.8,5.8,0,0,1-.4-2.1,7.9,7.9,0,0,1,.2-1.7,7.4,7.4,0,0,1,1.2-2.7c.8-1.1,1.6-1.6,2.4-1.4s1,.6,1.3,1.5a5.8,5.8,0,0,1,.4,2.1,8,8,0,0,1-.2,1.7m-11.4-6.3a5.3,5.3,0,0,0-3.6-2.6h-1.2c-2.2,0-4,1.1-5.4,3.4a12.1,12.1,0,0,0-1.8,6.4,8.8,8.8,0,0,0,1.1,4.5,5.3,5.3,0,0,0,3.6,2.6h1.2c2.2,0,4-1.1,5.4-3.4a12.2,12.2,0,0,0,1.8-6.5,8.6,8.6,0,0,0-1.1-4.5m-2.9,6.3A6,6,0,0,1,362,108a2.2,2.2,0,0,1-1.8.7c-.5-.1-1-.6-1.3-1.5a5.8,5.8,0,0,1-.4-2.1,7.9,7.9,0,0,1,.2-1.7,7.4,7.4,0,0,1,1.2-2.7c.8-1.1,1.6-1.6,2.4-1.4s1,.6,1.3,1.5a5.8,5.8,0,0,1,.4,2.1,6.8,6.8,0,0,1-.2,1.7" fill="#fff"/>
        <path id="Trazado_1435" data-name="Trazado 1435" d="M66.5,20.7v9.5L58.6,19.5l-.6-.7-.7-.3L56,18.3l-1.4.2a1.3,1.3,0,0,0-.8.7,3.4,3.4,0,0,0-.3,1.6V36.3a8.5,8.5,0,0,0,0,1,2.2,2.2,0,0,0,.3.8q.4.8,2.1.8t2.2-.8a2.2,2.2,0,0,0,.3-.7,8.1,8.1,0,0,0,0-1V27.1l8.3,11a1.6,1.6,0,0,0,.7.5l1.5.2q1.8,0,2.2-.8a2.3,2.3,0,0,0,.3-.7,7.9,7.9,0,0,0,0-1V20.8a4.4,4.4,0,0,0-.2-1.4,1.1,1.1,0,0,0-.3-.6l-.7-.3H68.9l-1.3.2a1.3,1.3,0,0,0-.8.7A3.4,3.4,0,0,0,66.5,20.7Z" fill="none" stroke="#e55f1f" stroke-miterlimit="10" stroke-width="1"/>
        <path id="Trazado_1436" data-name="Trazado 1436" d="M79.8,24.5A5,5,0,0,1,83.3,23a5.1,5.1,0,0,1,3.6,1.5,5.4,5.4,0,0,1,1.6,4.1,5.3,5.3,0,0,1-1.5,4,5,5,0,0,1-7.2,0,5.4,5.4,0,0,1-1.6-4,5.4,5.4,0,0,1,1.6-4.1Zm-.3-5.7A10.5,10.5,0,0,0,76.3,21a10.1,10.1,0,0,0-2.2,3.4,11.2,11.2,0,0,0-.8,4.4,10.2,10.2,0,0,0,3,7.3,9.7,9.7,0,0,0,7.2,3.1A9.4,9.4,0,0,0,90.6,36a10.7,10.7,0,0,0,2.9-7.6A10.3,10.3,0,0,0,83.3,18,9.4,9.4,0,0,0,79.5,18.8Z" fill="none" stroke="#e55f1f" stroke-miterlimit="10" stroke-width="1"/>
        <path id="Trazado_1437" data-name="Trazado 1437" d="M95.9,36.2A6.8,6.8,0,0,0,98,37.9a6.7,6.7,0,0,0,1.9.8,9.4,9.4,0,0,0,2.5.3,8.7,8.7,0,0,0,4.8-1.5,5.5,5.5,0,0,0,1.9-2.1,6.8,6.8,0,0,0,.7-3.2,6.1,6.1,0,0,0-.7-3.1,4.1,4.1,0,0,0-1.8-1.7l-2.3-.9-2.3-.5a4.4,4.4,0,0,1-1.8-.6,1.435,1.435,0,0,1-.1-2.4,2.5,2.5,0,0,1,1.5-.4,2.8,2.8,0,0,1,1.5.4l.4.4.3.3a2.9,2.9,0,0,0,1.5.6q1,0,2-1.4a3.1,3.1,0,0,0,.7-1.5,2.2,2.2,0,0,0-.9-1.4l-.7-.5a5.9,5.9,0,0,0-1.9-.9,10.2,10.2,0,0,0-3.1-.4,6.8,6.8,0,0,0-5,1.8,5.9,5.9,0,0,0-1.8,4.3,6.2,6.2,0,0,0,.7,3.1A4.6,4.6,0,0,0,97.8,29l2.3,1,2.3.6a5.2,5.2,0,0,1,1.8.6,1.3,1.3,0,0,1,.7,1.1q0,2.1-2.6,2.1A2.7,2.7,0,0,1,101,34a4.3,4.3,0,0,1-1.1-.9q-1.4-1.4-2.2-1.4a2.1,2.1,0,0,0-1.5.7Q95,33.6,95,34.3a2.7,2.7,0,0,0,.7,1.6Z" fill="none" stroke="#e55f1f" stroke-miterlimit="10" stroke-width="1"/>
        <path id="Trazado_1438" data-name="Trazado 1438" d="M110.5,38.8Z" fill="none" stroke="#e55f1f" stroke-miterlimit="10" stroke-width="1"/>
        <path id="Trazado_1439" data-name="Trazado 1439" d="M118.7,36.3a4.4,4.4,0,0,0,.2,1.4q.3,1.1,2.3,1.1t2.2-.8a2.2,2.2,0,0,0,.3-.7,8.3,8.3,0,0,0,0-1V20.8a5.5,5.5,0,0,0-.1-1.5q-.4-1-2.3-1T119,19a2.2,2.2,0,0,0-.3.7,8.1,8.1,0,0,0,0,1Z" fill="none" stroke="#e55f1f" stroke-miterlimit="10" stroke-width="1"/>
        <path id="Trazado_1440" data-name="Trazado 1440" d="M138.9,20.7v9.5L131,19.5l-.6-.7-.7-.3-1.3-.2-1.4.2a1.3,1.3,0,0,0-.8.7,3.4,3.4,0,0,0-.3,1.6V36.3a8.5,8.5,0,0,0,0,1,2.2,2.2,0,0,0,.3.8q.4.8,2.1.8t2.2-.8a2.2,2.2,0,0,0,.3-.7,8.1,8.1,0,0,0,0-1V27.1l8.3,11a1.6,1.6,0,0,0,.7.5l1.5.2q1.8,0,2.2-.8a2.3,2.3,0,0,0,.3-.7,7.9,7.9,0,0,0,0-1V20.8a4.4,4.4,0,0,0-.2-1.4,1.1,1.1,0,0,0-.3-.6l-.7-.3h-1.3l-1.3.2a1.3,1.3,0,0,0-.8.7,3.4,3.4,0,0,0-.3,1.3Z" fill="none" stroke="#e55f1f" stroke-miterlimit="10" stroke-width="1"/>
        <path id="Trazado_1441" data-name="Trazado 1441" d="M146,18.5a1,1,0,0,0-.5.6,3.9,3.9,0,0,0-.1,1.2,4.1,4.1,0,0,0,.1,1.2,1.1,1.1,0,0,0,.6.7l1.3.2h5.4V36.3a8.1,8.1,0,0,0,0,1,2.3,2.3,0,0,0,.3.7,1.2,1.2,0,0,0,.7.6l1.4.2,1.4-.2a1.2,1.2,0,0,0,.7-.6,2.3,2.3,0,0,0,.3-.7,7.7,7.7,0,0,0,0-1v-14H163a3.3,3.3,0,0,0,1.4-.3,1,1,0,0,0,.5-.6,3.9,3.9,0,0,0,.1-1.2,4.1,4.1,0,0,0-.1-1.2,1.1,1.1,0,0,0-.6-.7l-1.3-.2H147.4A3.3,3.3,0,0,0,146,18.5Z" fill="none" stroke="#e55f1f" stroke-miterlimit="10" stroke-width="1"/>
        <path id="Trazado_1442" data-name="Trazado 1442" d="M171.5,31H177l1.5-.2q1.1-.3,1.1-2.3t-.8-2.2l-.7-.3h-6.5V23.2h8.6l1.5-.2q1-.3,1-2.3t-.8-2.2l-.7-.3h-12a2.9,2.9,0,0,0-2,.5,2.7,2.7,0,0,0-.5,1.9V36.3a4.4,4.4,0,0,0,.2,1.4q.3,1.1,2.3,1.1h11.1l1.5-.2q1-.3,1-2.3t-.8-2.2l-.7-.3h-9.6Z" fill="none" stroke="#e55f1f" stroke-miterlimit="10" stroke-width="1"/>
        <path id="Trazado_1443" data-name="Trazado 1443" d="M193.7,26.7a.9.9,0,0,0-.5.6,4.5,4.5,0,0,0-.1,1.2,4.9,4.9,0,0,0,.1,1.2,1,1,0,0,0,.5.7,2.5,2.5,0,0,0,1.2.2h2.2v3.1a7.3,7.3,0,0,1-2.8.5,5.2,5.2,0,0,1-3.8-1.7,5.6,5.6,0,0,1-1.7-4.1,5,5,0,0,1,1.7-3.9,5.5,5.5,0,0,1,3.8-1.5,5,5,0,0,1,2.8.8,3.8,3.8,0,0,0,1.7.8q.9,0,2-1.5a2.8,2.8,0,0,0,.6-1.6,1.6,1.6,0,0,0-.8-1.2,10.4,10.4,0,0,0-13.6.8,9.8,9.8,0,0,0-3.1,7.4,10.5,10.5,0,0,0,3.1,7.6,9.8,9.8,0,0,0,7.3,3.1q4.7,0,7.1-2.4a2.4,2.4,0,0,0,.8-1.7V28.8a3.5,3.5,0,0,0-.3-1.6q-.3-.7-1.8-.8h-4.9a3,3,0,0,0-1.5.3Z" fill="none" stroke="#e55f1f" stroke-miterlimit="10" stroke-width="1"/>
        <path id="Trazado_1444" data-name="Trazado 1444" d="M209.3,23.2h3.5a2.7,2.7,0,0,1,1.7.6,2.2,2.2,0,0,1,.8,1.9,2.2,2.2,0,0,1-.8,1.8,2.7,2.7,0,0,1-1.6.6h-3.6Zm8.8,7.7a7,7,0,0,0,2.1-5.2,7.4,7.4,0,0,0-.7-3.3,6.6,6.6,0,0,0-1.8-2.4,7.8,7.8,0,0,0-4.8-1.8h-6q-1.8,0-2.2.8a2.2,2.2,0,0,0-.3.7,8.1,8.1,0,0,0,0,1V36.3a4.7,4.7,0,0,0,.2,1.5q.3,1,2.3,1T209,38a2.2,2.2,0,0,0,.3-.7,8.1,8.1,0,0,0,0-1V33.1h4.4l2.2,5.1.5.5a1.4,1.4,0,0,0,.9.3l1.4-.4q1.7-.7,1.7-1.8a4.4,4.4,0,0,0-.4-1.5Z" fill="none" stroke="#e55f1f" stroke-miterlimit="10" stroke-width="1"/>
        <path id="Trazado_1445" data-name="Trazado 1445" d="M233.5,30.3h-3.7l1.8-3.8Zm-1.8-12a2.5,2.5,0,0,0-1.3.4,2.4,2.4,0,0,0-.9,1l-7.6,15.6a3.6,3.6,0,0,0-.5,1.4q0,1,1.6,1.8a3.7,3.7,0,0,0,1.5.5,1.4,1.4,0,0,0,.9-.3l.5-.5.4-.8,1.5-3h7.8l1.5,3,.4.8.5.5a1.5,1.5,0,0,0,.9.3,3.7,3.7,0,0,0,1.5-.5q1.6-.8,1.6-1.8a3.7,3.7,0,0,0-.5-1.4l-7.6-15.6a2.4,2.4,0,0,0-2.3-1.4Z" fill="none" stroke="#e55f1f" stroke-miterlimit="10" stroke-width="1"/>
        <path id="Trazado_1446" data-name="Trazado 1446" d="M263.1,18.3q-1.8,0-2.3.8l-6.4,8.3L248.1,19l-.2-.2-.7-.4-1.3-.2q-1.8,0-2.2.7a2.2,2.2,0,0,0-.3.7,8.1,8.1,0,0,0,0,1V36.3a8.8,8.8,0,0,0,0,1,2,2,0,0,0,.3.7q.4.8,2.1.8T248,38a2,2,0,0,0,.3-.7,8.3,8.3,0,0,0,0-1V26.9l1.8,2.4,2.2,3,.2.3.7.6a2.3,2.3,0,0,0,2.3,0l.7-.5.5-.7,1.7-2.4,2-2.8v9.4a5.5,5.5,0,0,0,.1,1.5,1.3,1.3,0,0,0,.4.6l.7.3h1.3l1.3-.2q1.1-.3,1.1-2.3V20.8a8.8,8.8,0,0,0,0-1,2.3,2.3,0,0,0-.3-.8Q264.9,18.3,263.1,18.3Z" fill="none" stroke="#e55f1f" stroke-miterlimit="10" stroke-width="1"/>
        <path id="Trazado_1447" data-name="Trazado 1447" d="M273.9,24.5a5,5,0,0,1,3.6-1.6,5.1,5.1,0,0,1,3.6,1.5,5.4,5.4,0,0,1,1.6,4.1,5.3,5.3,0,0,1-1.6,4.1,5,5,0,0,1-7.2,0,5.4,5.4,0,0,1-1.6-4,5.4,5.4,0,0,1,1.6-4.1Zm-.3-5.7a10.5,10.5,0,0,0-3.2,2.2,10.1,10.1,0,0,0-2.2,3.4,11.2,11.2,0,0,0-.8,4.4,10.2,10.2,0,0,0,3,7.3,9.7,9.7,0,0,0,7.2,3.1,9.4,9.4,0,0,0,7.2-3.1,10.7,10.7,0,0,0,2.9-7.6A10.3,10.3,0,0,0,277.4,18a9.4,9.4,0,0,0-3.7.8Z" fill="none" stroke="#e55f1f" stroke-miterlimit="10" stroke-width="1"/>
        <path id="Trazado_1448" data-name="Trazado 1448" d="M290.1,36.2a6.8,6.8,0,0,0,2.1,1.7,6.7,6.7,0,0,0,1.9.8,9.4,9.4,0,0,0,2.5.3,8.7,8.7,0,0,0,4.8-1.5,5.5,5.5,0,0,0,1.9-2.1,6.8,6.8,0,0,0,.7-3.2,6.1,6.1,0,0,0-.7-3.1,4.1,4.1,0,0,0-1.8-1.7l-2.3-.9-2.3-.5a4.4,4.4,0,0,1-1.8-.6A1.435,1.435,0,0,1,295,23a2.5,2.5,0,0,1,1.5-.4,2.8,2.8,0,0,1,1.5.4l.4.4.3.3a2.9,2.9,0,0,0,1.5.6q1,0,2-1.4a3.1,3.1,0,0,0,.7-1.5A2.2,2.2,0,0,0,302,20l-.7-.5a5.9,5.9,0,0,0-1.9-.9,10.2,10.2,0,0,0-3.1-.4,6.8,6.8,0,0,0-5,1.8,5.9,5.9,0,0,0-1.8,4.3,6.2,6.2,0,0,0,.7,3.1,4.6,4.6,0,0,0,1.8,1.9l2.3,1,2.3.6a5.2,5.2,0,0,1,1.8.6,1.3,1.3,0,0,1,.7,1.1q0,2.1-2.6,2.1a2.7,2.7,0,0,1-1.3-.4,4.3,4.3,0,0,1-1.1-.9q-1.4-1.4-2.2-1.4a2.1,2.1,0,0,0-1.5.7q-1.2,1.2-1.2,1.9a2.7,2.7,0,0,0,.7,1.6Z" fill="none" stroke="#e55f1f" stroke-miterlimit="10" stroke-width="1"/>
        <path id="Trazado_1449" data-name="Trazado 1449" d="M304.7,38.8Z" fill="none" stroke="#e55f1f" stroke-miterlimit="10" stroke-width="1"/>
        <path id="Trazado_1450" data-name="Trazado 1450" d="M324.6,33.9l-1.6.2a6,6,0,0,1-3.6-1.2,4.8,4.8,0,0,1-1.4-1.8,6,6,0,0,1,0-5.1,4.7,4.7,0,0,1,1.4-1.7A6.1,6.1,0,0,1,323,23a4.8,4.8,0,0,1,3.1,1,3,3,0,0,0,1.4.6q.9,0,2-1.5a2.7,2.7,0,0,0,.6-1.6,1.7,1.7,0,0,0-.7-1.3l-.8-.5-.7-.4-2.1-.8a9.3,9.3,0,0,0-2.7-.4,11.3,11.3,0,0,0-5.5,1.5,10.7,10.7,0,0,0-2.6,1.9,9.1,9.1,0,0,0-1.9,2.9,10.3,10.3,0,0,0-.7,4,10.8,10.8,0,0,0,.7,4,9.3,9.3,0,0,0,1.9,3.1,11.6,11.6,0,0,0,2.6,2,11.3,11.3,0,0,0,2.8,1.2,10.8,10.8,0,0,0,2.7.3,9.2,9.2,0,0,0,2.8-.4l1.9-.7,1-.6.9-.7a1.4,1.4,0,0,0,.4-1,3.3,3.3,0,0,0-.6-1.6q-1-1.6-1.9-1.6a3.3,3.3,0,0,0-1.3.6l-.5.4Z" fill="none" stroke="#e55f1f" stroke-miterlimit="10" stroke-width="1"/>
        <path id="Trazado_1451" data-name="Trazado 1451" d="M338,24.5a5,5,0,0,1,3.6-1.6,5.1,5.1,0,0,1,3.6,1.5,5.4,5.4,0,0,1,1.6,4.1,5.3,5.3,0,0,1-1.6,4.1,5,5,0,0,1-7.2,0,5.4,5.4,0,0,1-1.6-4,5.4,5.4,0,0,1,1.6-4.1Zm-.3-5.7a10.5,10.5,0,0,0-3.2,2.2,10.1,10.1,0,0,0-2.2,3.4,11.2,11.2,0,0,0-.8,4.4,10.2,10.2,0,0,0,3,7.3,9.7,9.7,0,0,0,7.2,3.1,9.4,9.4,0,0,0,7.2-3.1,10.7,10.7,0,0,0,2.9-7.6A10.3,10.3,0,0,0,341.5,18a9.4,9.4,0,0,0-3.7.8Z" fill="none" stroke="#e55f1f" stroke-miterlimit="10" stroke-width="1"/>
        <path id="Trazado_1452" data-name="Trazado 1452" d="M366.6,20.7v9.5l-7.9-10.6-.6-.7-.7-.3-1.3-.2-1.4.2a1.3,1.3,0,0,0-.8.7,3.4,3.4,0,0,0-.3,1.6V36.3a8.5,8.5,0,0,0,0,1,2.2,2.2,0,0,0,.3.8q.4.8,2.1.8t2.2-.8a2.2,2.2,0,0,0,.3-.7,8.1,8.1,0,0,0,0-1V27.1l8.3,11a1.6,1.6,0,0,0,.7.5l1.5.2q1.8,0,2.2-.8a2.3,2.3,0,0,0,.3-.7,7.894,7.894,0,0,0,0-1V20.8a4.4,4.4,0,0,0-.2-1.4,1.1,1.1,0,0,0-.3-.6l-.7-.3H369l-1.3.2a1.3,1.3,0,0,0-.8.7,3.4,3.4,0,0,0-.3,1.3Z" fill="none" stroke="#e55f1f" stroke-miterlimit="10" stroke-width="1"/>
        <path id="Trazado_1453" data-name="Trazado 1453" d="M81.6,45.5a1,1,0,0,0-.5.6,3.9,3.9,0,0,0-.1,1.2,4.1,4.1,0,0,0,.1,1.2,1.1,1.1,0,0,0,.6.7l1.3.2h5.4V63.3a8.1,8.1,0,0,0,0,1,2.3,2.3,0,0,0,.3.7,1.2,1.2,0,0,0,.7.6l1.4.2,1.4-.2a1.2,1.2,0,0,0,.7-.6,2.3,2.3,0,0,0,.3-.7,7.7,7.7,0,0,0,0-1v-14h5.3A3.3,3.3,0,0,0,100,49a1,1,0,0,0,.5-.6,3.9,3.9,0,0,0,.1-1.2,4.1,4.1,0,0,0-.1-1.2,1.1,1.1,0,0,0-.6-.7l-1.3-.2H83.1a3.3,3.3,0,0,0-1.5.4Z" fill="none" stroke="#e55f1f" stroke-miterlimit="10" stroke-width="1"/>
        <path id="Trazado_1454" data-name="Trazado 1454" d="M115.3,47.6v8.6a6.2,6.2,0,0,1-1,3.5,3.4,3.4,0,0,1-3.1,1.5,4,4,0,0,1-2-.5,3.1,3.1,0,0,1-1.3-1.3,6.7,6.7,0,0,1-.8-3.2V47.8a3.8,3.8,0,0,0-.3-1.8,1.1,1.1,0,0,0-.7-.6l-1.4-.2-1.4.2a1.2,1.2,0,0,0-.8.6,2.2,2.2,0,0,0-.3.7,8.5,8.5,0,0,0,0,1v8.4a10.8,10.8,0,0,0,2.3,6.7,8.1,8.1,0,0,0,2.8,2.4,8.4,8.4,0,0,0,3.9.9,8.6,8.6,0,0,0,3.9-.9,8.3,8.3,0,0,0,2.9-2.3,10.8,10.8,0,0,0,2.3-6.7V47.8a4.7,4.7,0,0,0-.2-1.5,1.1,1.1,0,0,0-.4-.6l-.7-.3h-1.3l-1.3.2a1.4,1.4,0,0,0-.8.6,3.1,3.1,0,0,0-.3,1.4Z" fill="none" stroke="#e55f1f" stroke-miterlimit="10" stroke-width="1"/>
        <path id="Trazado_1455" data-name="Trazado 1455" d="M121.4,65.8Z" fill="none" stroke="#e55f1f" stroke-miterlimit="10" stroke-width="1"/>
        <path id="Trazado_1456" data-name="Trazado 1456" d="M129.5,45.5a1,1,0,0,0-.5.6,3.9,3.9,0,0,0-.1,1.2,4.1,4.1,0,0,0,.1,1.2,1.1,1.1,0,0,0,.6.7l1.3.2h5.4V63.3a8.1,8.1,0,0,0,0,1,2.3,2.3,0,0,0,.3.7,1.2,1.2,0,0,0,.7.6l1.4.2,1.4-.2a1.2,1.2,0,0,0,.7-.6,2.3,2.3,0,0,0,.3-.7,7.7,7.7,0,0,0,0-1v-14h5.3a3.3,3.3,0,0,0,1.4-.3,1,1,0,0,0,.5-.6,3.9,3.9,0,0,0,.1-1.2,4.1,4.1,0,0,0-.1-1.2,1.1,1.1,0,0,0-.6-.7l-1.3-.2H130.9a3.3,3.3,0,0,0-1.4.4Z" fill="none" stroke="#e55f1f" stroke-miterlimit="10" stroke-width="1"/>
        <path id="Trazado_1457" data-name="Trazado 1457" d="M150,63.3a4.4,4.4,0,0,0,.2,1.4q.3,1.1,2.3,1.1t2.2-.8a2.2,2.2,0,0,0,.3-.7,8.3,8.3,0,0,0,0-1V47.8a5.5,5.5,0,0,0-.1-1.5q-.4-1-2.3-1t-2.2.8a2.2,2.2,0,0,0-.3.7,8.1,8.1,0,0,0,0,1Z" fill="none" stroke="#e55f1f" stroke-miterlimit="10" stroke-width="1"/>
        <path id="Trazado_1458" data-name="Trazado 1458" d="M162.2,58h5.5l1.5-.2q1.1-.3,1.1-2.3t-.8-2.2l-.7-.3h-6.5V50.2h8.6l1.5-.2q1-.3,1-2.3t-.8-2.2l-.7-.3h-12a2.9,2.9,0,0,0-2,.5,2.7,2.7,0,0,0-.5,1.9V63.3a4.4,4.4,0,0,0,.2,1.4q.3,1.1,2.3,1.1H171l1.5-.2q1-.3,1-2.3t-.8-2.2l-.7-.3h-9.6Z" fill="none" stroke="#e55f1f" stroke-miterlimit="10" stroke-width="1"/>
        <path id="Trazado_1459" data-name="Trazado 1459" d="M188.1,47.7v9.5l-7.9-10.6-.6-.7-.7-.3-1.3-.2-1.4.2a1.3,1.3,0,0,0-.8.7,3.4,3.4,0,0,0-.3,1.6V63.3a8.494,8.494,0,0,0,0,1,2.2,2.2,0,0,0,.3.8q.4.8,2.1.8t2.2-.8a2.2,2.2,0,0,0,.3-.7,8.1,8.1,0,0,0,0-1V54.1l8.3,11a1.6,1.6,0,0,0,.7.5l1.5.2q1.8,0,2.2-.8a2.3,2.3,0,0,0,.3-.7,7.9,7.9,0,0,0,0-1V47.8a4.4,4.4,0,0,0-.2-1.4,1.1,1.1,0,0,0-.3-.6l-.7-.3h-1.3l-1.3.2a1.3,1.3,0,0,0-.8.7,3.4,3.4,0,0,0-.3,1.3Z" fill="none" stroke="#e55f1f" stroke-miterlimit="10" stroke-width="1"/>
        <path id="Trazado_1460" data-name="Trazado 1460" d="M202.9,60.8h-2.7V50.2h2.7a5.2,5.2,0,0,1,3.7,1.5,5.1,5.1,0,0,1,1.6,3.8,4.9,4.9,0,0,1-1.6,3.8,5.2,5.2,0,0,1-3.7,1.5ZM195.6,46a2.2,2.2,0,0,0-.3.7,8.1,8.1,0,0,0,0,1V63.3a3.7,3.7,0,0,0,.3,1.8q.4.7,2.1.7h5.1a9.9,9.9,0,0,0,7.3-3.1,10.1,10.1,0,0,0,3-7.3,9.5,9.5,0,0,0-3.1-7.2,10.1,10.1,0,0,0-7.1-2.9h-5.2Q195.9,45.2,195.6,46Z" fill="none" stroke="#e55f1f" stroke-miterlimit="10" stroke-width="1"/>
        <path id="Trazado_1461" data-name="Trazado 1461" d="M225,57.3h-3.7l1.8-3.8Zm-1.8-12a2.5,2.5,0,0,0-1.3.4,2.4,2.4,0,0,0-.9,1l-7.6,15.6a3.6,3.6,0,0,0-.5,1.4q0,1,1.6,1.8a3.7,3.7,0,0,0,1.5.5,1.4,1.4,0,0,0,.9-.3l.5-.5.4-.8,1.5-3H227l1.5,3,.4.8.5.5a1.5,1.5,0,0,0,.9.3,3.7,3.7,0,0,0,1.5-.5q1.6-.8,1.6-1.8a3.7,3.7,0,0,0-.5-1.4l-7.6-15.6a2.4,2.4,0,0,0-2.1-1.4Z" fill="none" stroke="#e55f1f" stroke-miterlimit="10" stroke-width="1"/>
        <path id="Trazado_1462" data-name="Trazado 1462" d="M233.8,65.8Z" fill="none" stroke="#e55f1f" stroke-miterlimit="10" stroke-width="1"/>
        <path id="Trazado_1463" data-name="Trazado 1463" d="M248.2,51.5a5,5,0,0,1,3.6-1.6,5.1,5.1,0,0,1,3.6,1.5,5.4,5.4,0,0,1,1.6,4.1,5.3,5.3,0,0,1-1.6,4.1,5,5,0,0,1-7.2,0,5.9,5.9,0,0,1,0-8.1Zm-.3-5.7a10.5,10.5,0,0,0-3.2,2.2,10.1,10.1,0,0,0-2.2,3.4,11.2,11.2,0,0,0-.8,4.4,10.2,10.2,0,0,0,3,7.3,9.7,9.7,0,0,0,7.2,3.1A9.4,9.4,0,0,0,259,63a10.7,10.7,0,0,0,2.9-7.6A10.3,10.3,0,0,0,251.7,45a9.4,9.4,0,0,0-3.8.8Z" fill="none" stroke="#e55f1f" stroke-miterlimit="10" stroke-width="1"/>
        <path id="Trazado_1464" data-name="Trazado 1464" d="M276.7,47.7v9.5l-7.9-10.6-.6-.7-.7-.3-1.3-.2-1.4.2a1.3,1.3,0,0,0-.8.7,3.4,3.4,0,0,0-.3,1.6V63.3a8.5,8.5,0,0,0,0,1,2.2,2.2,0,0,0,.3.8q.4.8,2.1.8t2.2-.8a2.2,2.2,0,0,0,.3-.7,8.1,8.1,0,0,0,0-1V54.1l8.3,11a1.6,1.6,0,0,0,.7.5l1.5.2q1.8,0,2.2-.8a2.3,2.3,0,0,0,.3-.7,7.894,7.894,0,0,0,0-1V47.8a4.4,4.4,0,0,0-.2-1.4,1.1,1.1,0,0,0-.3-.6l-.7-.3h-1.3l-1.3.2a1.3,1.3,0,0,0-.8.7,3.4,3.4,0,0,0-.3,1.3Z" fill="none" stroke="#e55f1f" stroke-miterlimit="10" stroke-width="1"/>
        <path id="Trazado_1465" data-name="Trazado 1465" d="M288.8,47.8a5.6,5.6,0,0,0-.1-1.5q-.4-1-2.3-1t-2.2.8a2.2,2.2,0,0,0-.3.7,8.4,8.4,0,0,0,0,1V63.3a4.4,4.4,0,0,0,.2,1.4q.3,1.1,2.3,1.1h10.1a3.2,3.2,0,0,0,1.5-.3,1,1,0,0,0,.5-.6,5.1,5.1,0,0,0,0-2.4,1.1,1.1,0,0,0-.6-.7l-1.3-.2H289Z" fill="none" stroke="#e55f1f" stroke-miterlimit="10" stroke-width="1"/>
        <path id="Trazado_1466" data-name="Trazado 1466" d="M300.3,63.3a4.4,4.4,0,0,0,.2,1.4q.3,1.1,2.3,1.1T305,65a2.2,2.2,0,0,0,.3-.7,8.3,8.3,0,0,0,0-1V47.8a5.5,5.5,0,0,0-.1-1.5q-.4-1-2.3-1t-2.2.8a2.2,2.2,0,0,0-.3.7,8.1,8.1,0,0,0,0,1Z" fill="none" stroke="#e55f1f" stroke-miterlimit="10" stroke-width="1"/>
        <path id="Trazado_1467" data-name="Trazado 1467" d="M320.5,47.7v9.5l-7.9-10.6-.6-.7-.7-.3-1.3-.2-1.4.2a1.3,1.3,0,0,0-.8.7,3.4,3.4,0,0,0-.3,1.6V63.3a8.5,8.5,0,0,0,0,1,2.2,2.2,0,0,0,.3.8q.4.8,2.1.8t2.2-.8a2.2,2.2,0,0,0,.3-.7,8.1,8.1,0,0,0,0-1V54.1l8.3,11a1.6,1.6,0,0,0,.7.5l1.5.2q1.8,0,2.2-.8a2.3,2.3,0,0,0,.3-.7,7.9,7.9,0,0,0,0-1V47.8a4.4,4.4,0,0,0-.2-1.4,1.1,1.1,0,0,0-.3-.6l-.7-.3h-1.3l-1.3.2a1.3,1.3,0,0,0-.8.7A3.4,3.4,0,0,0,320.5,47.7Z" fill="none" stroke="#e55f1f" stroke-miterlimit="10" stroke-width="1"/>
        <path id="Trazado_1468" data-name="Trazado 1468" d="M332.6,58h5.5l1.5-.2q1.1-.3,1.1-2.3t-.8-2.2l-.7-.3h-6.5V50.2h8.6l1.5-.2q1-.3,1-2.3t-.8-2.2l-.7-.3h-12a2.9,2.9,0,0,0-2,.5,2.7,2.7,0,0,0-.5,1.9V63.3a4.4,4.4,0,0,0,.2,1.4q.3,1.1,2.3,1.1h11.1l1.5-.2q1-.3,1-2.3t-.8-2.2l-.7-.3h-9.6Z" fill="none" stroke="#e55f1f" stroke-miterlimit="10" stroke-width="1"/>
      </g>
    </g>
  </g>
</svg>
