<svg xmlns="http://www.w3.org/2000/svg" xmlns:xlink="http://www.w3.org/1999/xlink" width="46.28" height="35.314" viewBox="0 0 46.28 35.314">
  <defs>
    <clipPath id="clip-path">
      <rect id="Rect치ngulo_23" data-name="Rect치ngulo 23" width="46.28" height="35.314" fill="none"/>
    </clipPath>
  </defs>
  <g id="Ilustraci칩n_16" data-name="Ilustraci칩n 16" transform="translate(23.14 17.657)">
    <g id="Grupo_10" data-name="Grupo 10" transform="translate(-23.14 -17.657)" clip-path="url(#clip-path)">
      <path id="Trazado_34" data-name="Trazado 34" d="M195.966.353,195.911.3a1.685,1.685,0,0,0-1.087-.4H172.871a.679.679,0,0,0,0,1.359h20.812L181.348,9.853a.869.869,0,0,1-.987,0L168.035,1.268h1.675a.679.679,0,1,0,0-1.359h-2.817a1.685,1.685,0,0,0-1.087.4l-.054.054a1.685,1.685,0,0,0-.552,1.25V18.566a1.685,1.685,0,0,0,.562,1.25l.045.036a1.685,1.685,0,0,0,1.087.4h27.931a1.685,1.685,0,0,0,1.087-.4l.045-.045a1.685,1.685,0,0,0,.562-1.241V1.6a1.685,1.685,0,0,0-.552-1.241M182.127,10.967l.082-.054,4.954,3.451a.68.68,0,1,0,.779-1.114l-4.546-3.17,11.765-8.2v16.4l-4.628-3.224a.68.68,0,0,0-.779,1.114l3.922,2.735H168.035l11.475-8,.082.054a2.228,2.228,0,0,0,2.536,0M166.558,1.883l11.774,8.2-11.774,8.2Z" transform="translate(-150.238 0.091)" fill="#fff"/>
      <path id="Trazado_35" data-name="Trazado 35" d="M19.592,68.01a12.462,12.462,0,0,0,4.854.027.679.679,0,1,0-.254-1.331,11.1,11.1,0,0,1-4.329-.027A23.393,23.393,0,0,1,1.569,48.384,11.14,11.14,0,0,1,4.621,38.277a2.355,2.355,0,0,1,3.324,0l3.813,3.813a1.666,1.666,0,0,1-.172,2.509L9.213,46.391a3.48,3.48,0,0,0-.951,4.528,24.833,24.833,0,0,0,9.093,9.075,3.48,3.48,0,0,0,4.528-.951l1.784-2.364a1.666,1.666,0,0,1,2.509-.172l3.813,3.813a2.355,2.355,0,0,1,0,3.324,11.14,11.14,0,0,1-2.762,2.02.679.679,0,1,0,.625,1.2,12.5,12.5,0,0,0,3.1-2.264,3.713,3.713,0,0,0,0-5.244l-3.813-3.813a3.025,3.025,0,0,0-4.546.317L20.8,58.237a2.154,2.154,0,0,1-2.762.6A23.475,23.475,0,0,1,9.439,50.24a2.142,2.142,0,0,1,.6-2.762l2.364-1.8a3.025,3.025,0,0,0,.317-4.546L8.9,37.317a3.713,3.713,0,0,0-5.244,0A12.489,12.489,0,0,0,.246,48.665,24.743,24.743,0,0,0,19.592,68.01" transform="translate(0.007 -32.951)" fill="#fff"/>
    </g>
  </g>
</svg>
