<svg xmlns="http://www.w3.org/2000/svg" xmlns:xlink="http://www.w3.org/1999/xlink" width="428.001" height="43.051" viewBox="0 0 428.001 43.051">
  <defs>
    <clipPath id="clip-path">
      <rect id="Rect치ngulo_518" data-name="Rect치ngulo 518" width="428.001" height="43.051" fill="none"/>
    </clipPath>
  </defs>
  <g id="Ilustraci칩n_67" data-name="Ilustraci칩n 67" transform="translate(214.001 21.525)">
    <g id="Grupo_428" data-name="Grupo 428" transform="translate(-214.001 -21.525)" clip-path="url(#clip-path)">
      <path id="Trazado_2384" data-name="Trazado 2384" d="M426,17.5l-1.9,1.7" transform="translate(0.995 0.041)" fill="none" stroke="#e55f1f" stroke-linecap="round" stroke-miterlimit="10" stroke-width="2.005"/>
      <path id="Trazado_2385" data-name="Trazado 2385" d="M420.371,22.83c-17.641,11.928-48.012,19.245-82.593,19.245h0c-21.25,0-41.5-2.907-58.437-8.42-29.068-9.422-57.835-13.832-90.512-13.832-23.555,0-50.217,2.205-86.3,7.217a192.551,192.551,0,0,1-26.362,1.9C39.58,28.945,16.626,17.418,5.5,9.9" transform="translate(0.013 0.023)" fill="none" stroke="#e55f1f" stroke-linecap="round" stroke-miterlimit="10" stroke-width="2.005" stroke-dasharray="4.97 5.97"/>
      <path id="Trazado_2386" data-name="Trazado 2386" d="M3,8.2,1,6.6" transform="translate(0.002 0.015)" fill="none" stroke="#e55f1f" stroke-linecap="round" stroke-miterlimit="10" stroke-width="2.005"/>
      <path id="Trazado_2387" data-name="Trazado 2387" d="M1,0S31.972,31.875,101.836,22.152s121.785-11.828,179.119,6.716C331.874,45.406,407.251,35.683,427,10.124V0Z" transform="translate(0.002)" fill="#e55f1f"/>
    </g>
  </g>
</svg>
