<svg xmlns="http://www.w3.org/2000/svg" xmlns:xlink="http://www.w3.org/1999/xlink" width="1926.523" height="43.073" viewBox="0 0 1926.523 43.073">
  <defs>
    <clipPath id="clip-path">
      <rect id="Rect치ngulo_877" data-name="Rect치ngulo 877" width="1926.523" height="43.073" fill="none"/>
    </clipPath>
  </defs>
  <g id="Ilustraci칩n_72" data-name="Ilustraci칩n 72" transform="translate(963.261 21.537)">
    <g id="Grupo_643" data-name="Grupo 643" transform="translate(-963.261 -21.537)" clip-path="url(#clip-path)">
      <path id="Trazado_4706" data-name="Trazado 4706" d="M1920.007,17.5l-2.407.5" transform="translate(5.513 0.05)" fill="none" stroke="#e55f1f" stroke-linecap="round" stroke-miterlimit="10" stroke-width="2.006"/>
      <path id="Trazado_4707" data-name="Trazado 4707" d="M1917.177,19.133C1842.363,33.274,1693.837,42.1,1522.646,42.1h0c-95.975,0-187.337-2.908-264.057-8.424-131.276-9.427-261.349-13.84-409.173-13.84-106.606,0-226.85,2.206-389.918,7.221-40.717,1.2-80.832,1.905-119.142,1.905C157.032,28.961,49.423,14.821,6.4,7.6" transform="translate(0.018 0.022)" fill="none" stroke="#e55f1f" stroke-linecap="round" stroke-miterlimit="10" stroke-width="2.006" stroke-dasharray="4.99 5.99"/>
      <path id="Trazado_4708" data-name="Trazado 4708" d="M3.507,7.1,1,6.6" transform="translate(0.003 0.019)" fill="none" stroke="#e55f1f" stroke-linecap="round" stroke-miterlimit="10" stroke-width="2.006"/>
      <path id="Trazado_4709" data-name="Trazado 4709" d="M1,0S140.9,31.891,456.405,22.164s550.378-11.834,809.019,6.719c230.461,16.547,570.836,6.82,660.092-18.754V0Z" transform="translate(0.003)" fill="#e55f1f"/>
    </g>
  </g>
</svg>
