<svg xmlns="http://www.w3.org/2000/svg" xmlns:xlink="http://www.w3.org/1999/xlink" width="774.436" height="71.223" viewBox="0 0 774.436 71.223">
  <defs>
    <clipPath id="clip-path">
      <rect id="Rectángulo_730" data-name="Rectángulo 730" width="774.436" height="71.223" fill="none"/>
    </clipPath>
  </defs>
  <g id="Ilustración_64" data-name="Ilustración 64" transform="translate(387.218 35.611)">
    <g id="Ilustración_64-2" data-name="Ilustración 64" transform="translate(-387.218 -35.611)" clip-path="url(#clip-path)">
      <path id="Trazado_3549" data-name="Trazado 3549" d="M1,24.1l4.534.544" transform="translate(0.814 19.609)" fill="none" stroke="#683f61" stroke-linecap="round" stroke-miterlimit="10" stroke-width="3.627"/>
      <path id="Trazado_3550" data-name="Trazado 3550" d="M9.4,44.709a248.6,248.6,0,0,0,25.029,1.27h0c36.455,0,55.317-9.25,76.9-19.95S161.929,1,215.07,1c57.675,0,86.331,11.245,113.9,22.127s49.15,19.225,95.217,19.225c50.057,0,76.718-8.706,102.472-17.23S573.813,9.706,612.988,9.343h2.72c72.909,0,119.521,26.3,141.285,42.44" transform="translate(7.648 0.814)" fill="none" stroke="#683f61" stroke-linecap="round" stroke-miterlimit="10" stroke-width="3.627" stroke-dasharray="5.01 6.01"/>
      <path id="Trazado_3551" data-name="Trazado 3551" d="M424.1,30.9l3.446,2.9" transform="translate(345.076 25.142)" fill="none" stroke="#683f61" stroke-linecap="round" stroke-miterlimit="10" stroke-width="3.627"/>
      <path id="Trazado_3552" data-name="Trazado 3552" d="M771.808,66.4S722.3,13.617,620.186,14.524c-80.164.544-91.409,32.827-188.984,32.827S330.906,6,222.086,6C110.364,6,123.785,64.944,1,48.077V66.4Z" transform="translate(0.814 4.882)" fill="#683f61"/>
    </g>
  </g>
</svg>