<svg xmlns="http://www.w3.org/2000/svg" xmlns:xlink="http://www.w3.org/1999/xlink" width="34.914" height="34.933" viewBox="0 0 34.914 34.933">
  <defs>
    <clipPath id="clip-path">
      <rect id="Rect치ngulo_400" data-name="Rect치ngulo 400" width="34.914" height="34.933" fill="none"/>
    </clipPath>
  </defs>
  <g id="Ilustraci칩n_58" data-name="Ilustraci칩n 58" transform="translate(17.457 17.466)">
    <g id="Grupo_274" data-name="Grupo 274" transform="translate(-17.457 -17.466)" clip-path="url(#clip-path)">
      <path id="Trazado_1037" data-name="Trazado 1037" d="M15.458,1.114A17.146,17.146,0,0,0,2.66,26.523s4.224,4.784,6.585,6.337,3.541,1.18,5.591,1.553a22.551,22.551,0,0,0,4.1.249l1.242-.186c7.579-1.118,13.543-6.585,14.475-14.164a17.146,17.146,0,0,0-19.2-19.2" transform="translate(-0.175 -0.369)" fill="#fff"/>
      <path id="Trazado_1038" data-name="Trazado 1038" d="M29.548,5.8A17.146,17.146,0,0,1,7.742,30.774,1.491,1.491,0,0,0,6.5,30.526l5.4,4.349a41.686,41.686,0,0,0,4.97,2.05,16.09,16.09,0,0,0,3.852.186c.621-.062,1.118-.683,1.739-.808,7.393-1.118,13.357-6.461,14.413-13.916A17.146,17.146,0,0,0,29.548,5.8" transform="translate(-2.462 -2.197)" fill="#d3d2d2"/>
      <path id="Trazado_1039" data-name="Trazado 1039" d="M18.238,34.913V20.625H21.9v-2.8H18.238V15.9a3.145,3.145,0,0,1,.683-2.423,2.547,2.547,0,0,1,1.988-.683l1.8.186.435-2.361a12.425,12.425,0,0,0-3.479-.435,6.275,6.275,0,0,0-3.168.683,3.293,3.293,0,0,0-1.677,1.615,8.573,8.573,0,0,0-.5,3.293v1.988H11.59v2.8h2.8V34.727l-.745-.186A17.457,17.457,0,0,1,17.43,0a17.457,17.457,0,0,1,1.491,34.852ZM19.48,21.867V33.547A16.215,16.215,0,1,0,1.153,17.456a16.4,16.4,0,0,0,11.99,15.655V21.867h-2.8V16.587h2.8v-.808a10,10,0,0,1,.559-3.852,4.473,4.473,0,0,1,2.112-2.174,7.455,7.455,0,0,1,3.79-.808,12.984,12.984,0,0,1,4.349.621l.5.186-.87,4.721-.621-.186a8.076,8.076,0,0,0-2.112-.311,1.429,1.429,0,0,0-1.056.311,2.3,2.3,0,0,0-.311,1.553v.683h3.665V21.8Z" transform="translate(0.089 0.001)" fill="#5f4160"/>
    </g>
  </g>
</svg>
