<svg xmlns="http://www.w3.org/2000/svg" xmlns:xlink="http://www.w3.org/1999/xlink" width="35.286" height="35.314" viewBox="0 0 35.286 35.314">
  <defs>
    <clipPath id="clip-path">
      <rect id="Rect치ngulo_22" data-name="Rect치ngulo 22" width="35.286" height="35.314" fill="none"/>
    </clipPath>
  </defs>
  <g id="Ilustraci칩n_18" data-name="Ilustraci칩n 18" transform="translate(17.643 17.657)">
    <g id="Grupo_9" data-name="Grupo 9" transform="translate(-17.643 -17.657)" clip-path="url(#clip-path)">
      <path id="Trazado_24" data-name="Trazado 24" d="M33.842,7.835a2.9,2.9,0,0,0-3.954,1.058l-2.575,4.451V9.656a.69.69,0,1,0-1.379,0v6.079L18.356,28.849a.68.68,0,0,0-.092.267l-.515,4.819H1.379V1.379H25.934V3.449a.69.69,0,0,0,1.379,0V.69a.69.69,0,0,0-.69-.69H.69A.69.69,0,0,0,0,.69V34.624a.69.69,0,0,0,.69.69H26.623a.69.69,0,0,0,.69-.69V24.931L34.9,11.79a2.9,2.9,0,0,0-1.058-3.954M19.524,30.32l2,1.15-2.3,1.674Zm6.41,3.614H20.48l2.7-1.977a.7.7,0,0,0,.193-.212l2.557-4.423Zm-3.412-3.476-2.63-1.517,10.1-17.482,2.63,1.517ZM33.7,11.1l-.4.681-2.63-1.517.4-.681A1.518,1.518,0,1,1,33.7,11.1" fill="#fff"/>
      <path id="Trazado_25" data-name="Trazado 25" d="M282.683,63.8a.69.69,0,1,0,.487.2.69.69,0,0,0-.487-.2" transform="translate(-256.06 -57.933)" fill="#fff"/>
      <path id="Trazado_26" data-name="Trazado 26" d="M79.922,79.5H65.99a.69.69,0,0,0,0,1.379H79.922a.69.69,0,0,0,0-1.379" transform="translate(-59.295 -72.189)" fill="#fff"/>
      <path id="Trazado_27" data-name="Trazado 27" d="M79.922,121.5H65.99a.69.69,0,0,0,0,1.379H79.922a.69.69,0,0,0,0-1.379" transform="translate(-59.295 -110.326)" fill="#fff"/>
      <path id="Trazado_28" data-name="Trazado 28" d="M166.912,163.5H161.79a.69.69,0,1,0,0,1.379h5.122a.69.69,0,0,0,0-1.379" transform="translate(-146.285 -148.464)" fill="#fff"/>
      <path id="Trazado_29" data-name="Trazado 29" d="M80.612,206.19a.69.69,0,0,0-.69-.69H65.99a.69.69,0,0,0,0,1.379H79.922a.69.69,0,0,0,.69-.69" transform="translate(-59.295 -186.602)" fill="#fff"/>
      <path id="Trazado_30" data-name="Trazado 30" d="M143.293,248.19a.69.69,0,0,0-.69-.69H138.29a.69.69,0,1,0,0,1.379H142.6a.69.69,0,0,0,.69-.69" transform="translate(-124.946 -224.739)" fill="#fff"/>
      <path id="Trazado_31" data-name="Trazado 31" d="M65.99,290.879h6.07a.69.69,0,0,0,0-1.379H65.99a.69.69,0,0,0,0,1.379" transform="translate(-59.295 -262.877)" fill="#fff"/>
      <path id="Trazado_32" data-name="Trazado 32" d="M65.99,164.879h4.6a.69.69,0,0,0,0-1.379h-4.6a.69.69,0,0,0,0,1.379" transform="translate(-59.295 -148.464)" fill="#fff"/>
      <path id="Trazado_33" data-name="Trazado 33" d="M65.99,248.879h3.55a.69.69,0,0,0,0-1.379H65.99a.69.69,0,0,0,0,1.379" transform="translate(-59.295 -224.739)" fill="#fff"/>
    </g>
  </g>
</svg>
