<svg xmlns="http://www.w3.org/2000/svg" xmlns:xlink="http://www.w3.org/1999/xlink" width="34.914" height="34.951" viewBox="0 0 34.914 34.951">
  <defs>
    <clipPath id="clip-path">
      <rect id="Rect치ngulo_401" data-name="Rect치ngulo 401" width="34.914" height="34.951" fill="none"/>
    </clipPath>
  </defs>
  <g id="Ilustraci칩n_59" data-name="Ilustraci칩n 59" transform="translate(17.457 17.476)">
    <g id="Grupo_275" data-name="Grupo 275" transform="translate(-17.457 -17.476)" clip-path="url(#clip-path)">
      <path id="Trazado_1040" data-name="Trazado 1040" d="M15.777,1.1A16.774,16.774,0,0,0,3.29,25.947s4.162,4.97,6.461,6.461A17.467,17.467,0,0,0,20.5,34.4,16.816,16.816,0,1,0,15.777,1.1" transform="translate(-0.433 -0.352)" fill="#fff"/>
      <path id="Trazado_1041" data-name="Trazado 1041" d="M29.324,5.662A16.774,16.774,0,0,1,7.953,30.077,2.3,2.3,0,0,0,6.4,29.891l5.281,4.287A16.793,16.793,0,0,0,29.324,5.6" transform="translate(-2.424 -2.121)" fill="#d3d2d2"/>
      <path id="Trazado_1042" data-name="Trazado 1042" d="M25.561,29.725H25.5a4.224,4.224,0,0,1-2.92-1.242A4.038,4.038,0,0,1,21.4,25.5a4.224,4.224,0,0,1,4.162-4.1,4.162,4.162,0,0,1,2.92,1.242,4.1,4.1,0,0,1,1.18,2.92,4.162,4.162,0,0,1-1.242,2.92,4.1,4.1,0,0,1-2.858,1.18M25.5,28.42a2.858,2.858,0,0,0,2.05-.808,2.92,2.92,0,0,0,.87-2.05,2.858,2.858,0,0,0-.808-2.05,2.92,2.92,0,0,0-2.05-.87,2.982,2.982,0,0,0-2.92,2.858,2.8,2.8,0,0,0,.808,2.05,3.044,3.044,0,0,0,2.05.87" transform="translate(-8.104 -8.105)" fill="#5f4160"/>
      <path id="Trazado_1043" data-name="Trazado 1043" d="M29.6,25.868c-.311,0-.373.062-.311.373a5.539,5.539,0,1,1-11,.435c.124-.808.062-.808-.745-.808s-.745.124-.745.745c.062,2.236,0,4.473,0,6.647,0,.87.248,1.118,1.056,1.118H29.783c.87,0,1.056-.249,1.056-1.118V27.049c0-1.3,0-1.3-1.242-1.18" transform="translate(-6.362 -9.778)" fill="#5f4160"/>
      <path id="Trazado_1044" data-name="Trazado 1044" d="M17.457,35.014a17.457,17.457,0,1,1,12.366-5.135,17.457,17.457,0,0,1-12.366,5.135m0-33.734A16.215,16.215,0,1,0,33.672,17.495,16.215,16.215,0,0,0,17.457,1.28m6.709,25.968H10.686A2.743,2.743,0,0,1,7.7,24.266V10.848A2.779,2.779,0,0,1,10.748,7.8H24.167a2.761,2.761,0,0,1,3.044,2.982V24.2a2.8,2.8,0,0,1-3.044,3.044M10.748,9.046c-1.242,0-1.8.559-1.8,1.8V24.2a1.521,1.521,0,0,0,1.739,1.739H24.167c1.242,0,1.8-.559,1.8-1.8V10.785c0-1.18-.559-1.739-1.8-1.739Z" transform="translate(0 -0.038)" fill="#5f4160"/>
      <path id="Trazado_1045" data-name="Trazado 1045" d="M35.123,20.546c-2.112,0-2.423-.248-2.423-2.423s.248-2.423,2.361-2.423,2.423.248,2.423,2.423-.249,2.361-2.423,2.361m-1.118-1.3a8.573,8.573,0,0,0,2.236,0,6.461,6.461,0,0,0,.062-1.118,5.156,5.156,0,0,0-.062-1.18,12.239,12.239,0,0,0-2.236,0A6.585,6.585,0,0,0,33.88,18a6.461,6.461,0,0,0,.062,1.118" transform="translate(-12.385 -5.946)" fill="#5f4160"/>
    </g>
  </g>
</svg>
