<svg xmlns="http://www.w3.org/2000/svg" xmlns:xlink="http://www.w3.org/1999/xlink" width="31.113" height="34.153" viewBox="0 0 31.113 34.153">
  <defs>
    <clipPath id="clip-path">
      <rect id="Rect치ngulo_368" data-name="Rect치ngulo 368" width="31.113" height="34.153" fill="none"/>
    </clipPath>
  </defs>
  <g id="Ilustraci칩n_50" data-name="Ilustraci칩n 50" transform="translate(15.556 17.076)">
    <g id="Grupo_244" data-name="Grupo 244" transform="translate(-15.556 -17.076)" clip-path="url(#clip-path)">
      <path id="Trazado_820" data-name="Trazado 820" d="M29.794,37.158a5.662,5.662,0,0,0-3.353-1.924l-4.068-.715-.66-.22H20.064l.44.44-1.044.495h2.2l.495.11,4.068.715a4.727,4.727,0,0,1,4.013,4.727v5.222a11.654,11.654,0,0,1-5,2.419l-.88.165-1.484.11H8.3l-1.484-.11-.934-.165a11.654,11.654,0,0,1-5-2.419V40.786a4.727,4.727,0,0,1,3.958-4.672L8.905,35.4l.495-.11h2.2l-.989-.6.44-.385H9.4l-.66.22-4.068.715A5.662,5.662,0,0,0,0,40.786v5.442a.44.44,0,0,0,.165.33,12.478,12.478,0,0,0,6.1,2.858h.11l1.979.165H22.812a12.038,12.038,0,0,0,2.034-.165h0a12.478,12.478,0,0,0,6.1-2.858.44.44,0,0,0,.165-.33V40.786a5.662,5.662,0,0,0-1.319-3.628" transform="translate(0 -15.445)" fill="#fff"/>
      <path id="Trazado_821" data-name="Trazado 821" d="M29.43,31.087h-.165a2.913,2.913,0,0,1-1.649-1.924l-.33-1.484-.11-.385a.44.44,0,0,0-.44-.33,5.882,5.882,0,0,1-1.484.934h1.1l.11.385.275,1.1a3.738,3.738,0,0,0,.934,1.7l.44.44-1.044.495h0l-1.539.715a5.552,5.552,0,0,1-4.837,0l-1.539-.715-.934-.715.44-.385a3.793,3.793,0,0,0,.934-1.7l.22-1.1.11-.385h1.1a5.882,5.882,0,0,1-1.484-.934.44.44,0,0,0-.44.33l-.11.385-.33,1.429a2.913,2.913,0,0,1-1.649,1.924h-.055v.11a.44.44,0,0,0-.055.275v.11a.44.44,0,0,0,.22.275l.165.11,1.1.55,2.034.989a6.431,6.431,0,0,0,5.607,0L28,32.407l1.1-.55.165-.11.165-.165h0v-.11a.44.44,0,0,0-.11-.385" transform="translate(-7.607 -12.068)" fill="#fff"/>
      <path id="Trazado_822" data-name="Trazado 822" d="M29.63,5.827h0l-.11-.495L29.41,5a7.256,7.256,0,0,0-1.649-2.858l-.825-.715-.275-.22-.33-.22-.55-.275h-.11L25.342.55l-.33-.11A8.245,8.245,0,0,0,22.7,0H20.559l-1.1.275-.275.11-.275.11-.385.22L18.251.88l-.66.44-.22.165-.825.934-.22.275-.22.275-.22.275-.165.33-.165.33-.275.715-.165.55v.66a9.675,9.675,0,0,0-.22,2.034A9.84,9.84,0,0,0,18.251,15.5l.825.55a6.322,6.322,0,0,0,6.706,0l.825-.55a9.84,9.84,0,0,0,3.188-7.7,9.84,9.84,0,0,0-.22-2.034m-3.683,8.96a5.882,5.882,0,0,1-1.484.934,5.332,5.332,0,0,1-4.343,0,5.882,5.882,0,0,1-1.484-.934,8.96,8.96,0,0,1-2.968-6.926,8.9,8.9,0,0,1,.165-1.594,6.651,6.651,0,0,1,.275-1.044V5h0l.22-.55a5.772,5.772,0,0,1,1.319-1.759,5.882,5.882,0,0,1,.989-.77l.22-.11.77-.33.33-.11h.165l.385-.11h.33l.77-.33h1.374l.989.165h.55l.385.11.44.165.33.165.22.165.275.165.275.165.275.165.44.44.22.22A5.827,5.827,0,0,1,28.035,3.9l.11.22.275.715h0a6.981,6.981,0,0,1,.275,1.1,9.07,9.07,0,0,1,.165,1.649,8.96,8.96,0,0,1-2.968,6.926" transform="translate(-6.707 0)" fill="#fff"/>
      <path id="Trazado_823" data-name="Trazado 823" d="M44.74,55.181a.44.44,0,0,1-.44-.44v-7.2a.44.44,0,0,1,.88,0v7.2a.44.44,0,0,1-.44.44" transform="translate(-19.948 -21.209)" fill="#fff"/>
      <path id="Trazado_824" data-name="Trazado 824" d="M11.24,55.158a.44.44,0,0,1-.44-.44v-7.2a.467.467,0,0,1,.934,0v7.2a.44.44,0,0,1-.44.44" transform="translate(-4.863 -21.187)" fill="#fff"/>
      <path id="Trazado_825" data-name="Trazado 825" d="M29.34,34.465h-.55l-.77.385-1.044.495h0l-1.539.715a5.552,5.552,0,0,1-4.837,0l-1.539-.715-.989-.66L17.3,34.3h-.55a.44.44,0,0,0-.055.275v.22l.22.33,2.364,4.233A5.662,5.662,0,0,1,20,41.886l.22,6.651v.495a.44.44,0,0,0,.44.44h4.837a.44.44,0,0,0,.44-.44v-.495l.275-6.486a5.552,5.552,0,0,1,.715-2.529l2.364-4.233.165-.33h0v-.11a.44.44,0,0,0-.11-.385M26.1,39.082a6.541,6.541,0,0,0-.825,2.968l-.22,6.651H21.095l-.22-6.651a6.486,6.486,0,0,0-.825-2.968l-1.869-3.3,2.034.989a6.431,6.431,0,0,0,5.607,0l2.089-.989Z" transform="translate(-7.517 -15.445)" fill="#fff"/>
      <path id="Trazado_826" data-name="Trazado 826" d="M20.822,6.431h-.275c-1.924-1.319-4.288-.385-5-.055a.44.44,0,0,1-.66-.495A7.109,7.109,0,0,1,22.251,0a7.017,7.017,0,0,1,7.311,5.827.44.44,0,0,1-.66.495c-5-2.529-7.806,0-7.806,0l-.33.11M18.238,4.782a4.947,4.947,0,0,1,2.529.66c.825-.6,3.463-2.089,7.641-.33A6.077,6.077,0,0,0,22.251.88a6.191,6.191,0,0,0-6.212,4.233,7.2,7.2,0,0,1,2.2-.385" transform="translate(-6.695)" fill="#fff"/>
    </g>
  </g>
</svg>
