<svg xmlns="http://www.w3.org/2000/svg" xmlns:xlink="http://www.w3.org/1999/xlink" width="34.672" height="34.153" viewBox="0 0 34.672 34.153">
  <defs>
    <clipPath id="clip-path">
      <rect id="Rect치ngulo_367" data-name="Rect치ngulo 367" width="34.672" height="34.153" fill="none"/>
    </clipPath>
  </defs>
  <g id="Ilustraci칩n_51" data-name="Ilustraci칩n 51" transform="translate(17.336 17.076)">
    <g id="Grupo_243" data-name="Grupo 243" transform="translate(-17.336 -17.076)" clip-path="url(#clip-path)">
      <path id="Trazado_804" data-name="Trazado 804" d="M1.594,121.5H.351a.4.4,0,0,1,0-.8H1.594a.4.4,0,0,1,0,.8" transform="translate(0.036 -87.354)" fill="#fff"/>
      <path id="Trazado_805" data-name="Trazado 805" d="M23.325,121.5H12.551a.4.4,0,0,1,0-.8H23.325a.4.4,0,0,1,0,.8" transform="translate(-8.793 -87.354)" fill="#fff"/>
      <path id="Trazado_806" data-name="Trazado 806" d="M85.055,121.5h-14.5a.4.4,0,1,1,0-.8h14.5a.4.4,0,0,1,0,.8" transform="translate(-50.77 -87.354)" fill="#fff"/>
      <path id="Trazado_807" data-name="Trazado 807" d="M19.142,106.2H17.651a.4.4,0,1,1,0-.8h1.492a.4.4,0,1,1,0,.8" transform="translate(-12.484 -76.281)" fill="#fff"/>
      <path id="Trazado_808" data-name="Trazado 808" d="M37.63,106.2H30.751a.4.4,0,1,1,0-.8H37.63a.4.4,0,1,1,0,.8" transform="translate(-21.965 -76.281)" fill="#fff"/>
      <path id="Trazado_809" data-name="Trazado 809" d="M97.963,106.2H92.051a.4.4,0,0,1,0-.8h5.912a.4.4,0,1,1,0,.8" transform="translate(-66.33 -76.281)" fill="#fff"/>
      <path id="Trazado_810" data-name="Trazado 810" d="M97.383,90.9H96.251a.4.4,0,1,1,0-.8h1.16a.4.4,0,1,1,0,.8" transform="translate(-69.369 -65.208)" fill="#fff"/>
      <path id="Trazado_811" data-name="Trazado 811" d="M112.195,90.9h-4.144a.4.4,0,1,1,0-.8h4.144a.4.4,0,0,1,0,.8" transform="translate(-77.909 -65.208)" fill="#fff"/>
      <path id="Trazado_812" data-name="Trazado 812" d="M96.28,75.5H90.451a.4.4,0,0,1,0-.8H96.28a.4.4,0,0,1,0,.8" transform="translate(-65.172 -54.062)" fill="#fff"/>
      <path id="Trazado_813" data-name="Trazado 813" d="M80.553,60.2h-1.6a.4.4,0,0,1,0-.8h1.575a.4.4,0,0,1,0,.8" transform="translate(-56.849 -42.989)" fill="#fff"/>
      <path id="Trazado_814" data-name="Trazado 814" d="M100.832,60.2H92.351a.4.4,0,1,1,0-.8h8.482a.4.4,0,1,1,0,.8" transform="translate(-66.547 -42.989)" fill="#fff"/>
      <path id="Trazado_815" data-name="Trazado 815" d="M98.118,1.9H88.587a.387.387,0,0,0-.387.387v8.564l.774-.414V2.7H97.7v8.73H91.874l-1.464.8h7.708a.387.387,0,0,0,.387-.387V2.314a.387.387,0,0,0-.387-.387" transform="translate(-63.833 -1.375)" fill="#fff"/>
      <path id="Trazado_816" data-name="Trazado 816" d="M103.189,7h-.138l-1.464-.5-1.464.5a.387.387,0,0,1-.525-.387V2.384A.387.387,0,0,1,99.985,2h3.177a.387.387,0,0,1,.414.387V6.611a.387.387,0,0,1-.166.332l-.221.083M101.615,5.7h.138l1.077.359V2.771h-2.376V6.059l1.077-.359h.138" transform="translate(-72.081 -1.445)" fill="#fff"/>
      <path id="Trazado_817" data-name="Trazado 817" d="M26.764,81.407a2.21,2.21,0,0,1-1.022-.249,2.238,2.238,0,0,1-1.022-2.68l1.741-5.3-3.509-3.4-3.371,3.9a2.984,2.984,0,0,1-2.625,1.022l-5.387-.608A2.21,2.21,0,0,1,9.58,72.1a2.183,2.183,0,0,1,2.431-2.348l4.89.553,2.072-2.542a1.547,1.547,0,0,0,.359-1.077v-.635a.387.387,0,0,1,.387-.414l6.106-.332a.414.414,0,0,1,.276.111.387.387,0,0,1,.138.276v.663a1.547,1.547,0,0,0,.442,1.022l3.426,3.371a2.984,2.984,0,0,1,.718,3.039l-1.989,6.133a2.183,2.183,0,0,1-1.962,1.492h-.111m-3.84-12.626a.387.387,0,0,1,.276.111l3.978,3.868a.387.387,0,0,1,.111.414L25.466,78.7A1.437,1.437,0,0,0,26.1,80.44a1.381,1.381,0,0,0,1.989-.8l1.989-6.106a2.21,2.21,0,0,0-.553-2.238l-3.4-3.426a2.348,2.348,0,0,1-.691-1.519V66.1l-5.332.276v.249a2.348,2.348,0,0,1-.525,1.63l-2.21,2.707a.387.387,0,0,1-.359.138l-5.083-.58a1.381,1.381,0,0,0-1.547,1.492,1.437,1.437,0,0,0,1.3,1.271l5.387.608A2.21,2.21,0,0,0,19,73.146l3.619-4.227a.387.387,0,0,1,.276-.138Z" transform="translate(-6.928 -47.259)" fill="#fff"/>
      <path id="Trazado_818" data-name="Trazado 818" d="M41.811,26.206a1.989,1.989,0,0,0-2.6-.553l-1.464.8-.8.442-1.437.8a1.188,1.188,0,0,1-1.105.028l-3.039-1.519a7.8,7.8,0,0,0-6.99-.166c-.884.47-2.873,1.768-3.978,2.486a2.984,2.984,0,0,0-1.105,1.326l-1.741,4.089a1.989,1.989,0,0,0,.856,2.431,1.934,1.934,0,0,0,2.735-.995L22.61,31.9a.884.884,0,0,1,.359-.414l1.658-.995.332,6.6a.427.427,0,0,0,.414.387H25.4l6.106-.332a.387.387,0,0,0,.387-.414l-.359-6.161,2.238,1.05a3.011,3.011,0,0,0,2.707-.083l4.365-2.376.3-.166a1.906,1.906,0,0,0,.691-.635,1.934,1.934,0,0,0-.028-2.155m-2.625,2.956-3.067,1.685a2.21,2.21,0,0,1-1.989.055l-2.846-1.326a.385.385,0,0,0-.553.387l.359,6.382-5.36.3-.359-6.879a.387.387,0,0,0-.221-.332l-.193-.055-.193.055-2.21,1.326a1.685,1.685,0,0,0-.691.8L20.4,35.075a1.133,1.133,0,0,1-1.6.608,1.188,1.188,0,0,1-.5-1.437l1.713-4.061a2.21,2.21,0,0,1,.8-.967c.884-.58,3.039-1.989,3.923-2.459a6.986,6.986,0,0,1,6.271.166l3.067,1.492a1.989,1.989,0,0,0,1.823-.028l1.077-.58.774-.442L39.6,26.344a1.188,1.188,0,0,1,1.547.3,1.167,1.167,0,0,1-.387,1.658l-.111.055Z" transform="translate(-12.609 -18.305)" fill="#fff"/>
      <path id="Trazado_819" data-name="Trazado 819" d="M46.839,6.078a3.039,3.039,0,1,1,3.039-3.039,3.039,3.039,0,0,1-3.039,3.039m0-5.3a2.238,2.238,0,1,0,2.238,2.265A2.265,2.265,0,0,0,46.839.8" transform="translate(-31.699)" fill="#fff"/>
    </g>
  </g>
</svg>
