<svg xmlns="http://www.w3.org/2000/svg" xmlns:xlink="http://www.w3.org/1999/xlink" width="38.419" height="38.416" viewBox="0 0 38.419 38.416">
  <defs>
    <clipPath id="clip-path">
      <rect id="Rect치ngulo_397" data-name="Rect치ngulo 397" width="38.419" height="38.415" fill="none"/>
    </clipPath>
  </defs>
  <g id="Ilustraci칩n_46" data-name="Ilustraci칩n 46" transform="translate(19.209 19.208)">
    <g id="Grupo_270" data-name="Grupo 270" transform="translate(-19.209 -19.208)" clip-path="url(#clip-path)">
      <path id="Trazado_972" data-name="Trazado 972" d="M40.032,31.962a8.732,8.732,0,0,0-6.5,12.936l-1.132,4.5,4.463-1.132a8.732,8.732,0,1,0,3.169-16.3" transform="translate(-21.922 -21.581)" fill="#fff"/>
      <path id="Trazado_973" data-name="Trazado 973" d="M46.047,36.532A8.732,8.732,0,0,1,34.922,49.274a1.2,1.2,0,0,0-.808-.1l-.938.226-.776,3.1,4.463-1.132A8.741,8.741,0,0,0,46.047,36.5" transform="translate(-21.922 -24.696)" fill="#d3d2d2"/>
      <path id="Trazado_974" data-name="Trazado 974" d="M46.657,33.364a9.184,9.184,0,0,0-14.585,10.8l-1.1,4.333a.42.42,0,0,0,.129.42.453.453,0,0,0,.42.129l4.3-1.1a9.087,9.087,0,0,0,4.333,1.1,9.474,9.474,0,0,0,1.358-.1,9.184,9.184,0,0,0,5.142-15.587M48.4,40.9a8.311,8.311,0,0,1-12.289,6.177l-.226-.065h-.1l-3.784.97.938-3.751a.42.42,0,0,0-.032-.323A8.311,8.311,0,1,1,48.4,40.9" transform="translate(-20.947 -20.784)" fill="#3e1c40"/>
      <path id="Trazado_975" data-name="Trazado 975" d="M22.863,5.4A17.463,17.463,0,0,0,5.4,22.863a.55.55,0,0,0,1.1,0A16.364,16.364,0,1,1,22.863,39.227a.55.55,0,0,0,0,1.1,17.463,17.463,0,0,0,0-34.926" transform="translate(-3.654 -3.654)" fill="#3e1c40"/>
      <path id="Trazado_976" data-name="Trazado 976" d="M52.621,107.357H49.128a2.328,2.328,0,0,1,0-4.657h3.493a2.328,2.328,0,0,1,0,4.657" transform="translate(-31.665 -69.488)" fill="#fff"/>
      <path id="Trazado_977" data-name="Trazado 977" d="M53.121,102.7a2.878,2.878,0,0,1,.42,1.52,1.746,1.746,0,0,1-1.746,1.746H47.3a2.328,2.328,0,0,0,2.134,1.423h3.525a2.33,2.33,0,0,0,.162-4.657" transform="translate(-32.004 -69.488)" fill="#d3d2d2"/>
      <path id="Trazado_978" data-name="Trazado 978" d="M51.437,100.9H47.944a2.894,2.894,0,1,0,0,5.789h3.493a2.894,2.894,0,1,0,0-5.789m1.779,2.878a1.779,1.779,0,0,1-1.779,1.779H47.944a1.779,1.779,0,0,1,0-3.557h3.493a1.779,1.779,0,0,1,1.779,1.779" transform="translate(-30.481 -68.27)" fill="#3e1c40"/>
      <path id="Trazado_979" data-name="Trazado 979" d="M6.357,52.406h0A4.657,4.657,0,0,1,1.7,47.749V44.257A4.657,4.657,0,0,1,6.357,39.6a1.164,1.164,0,0,1,1.164,1.164V51.242a1.164,1.164,0,0,1-1.164,1.164" transform="translate(-1.15 -26.794)" fill="#fff"/>
      <path id="Trazado_980" data-name="Trazado 980" d="M7.642,39.6H7.06v9.9A1.164,1.164,0,0,1,5.9,50.66a4.624,4.624,0,0,1-2.3-.614,4.657,4.657,0,0,0,4.042,2.361,1.164,1.164,0,0,0,1.164-1.164V40.764A1.164,1.164,0,0,0,7.642,39.6" transform="translate(-2.436 -26.794)" fill="#d3d2d2"/>
      <path id="Trazado_981" data-name="Trazado 981" d="M5.207,37.8A5.239,5.239,0,0,0,0,43.039v3.493a5.239,5.239,0,0,0,5.207,5.207,1.714,1.714,0,0,0,1.714-1.714V39.546a1.714,1.714,0,0,0-1.714-1.714m.614,1.714V50.024a.614.614,0,0,1-.614.614A4.107,4.107,0,0,1,1.1,46.532V43.039a4.107,4.107,0,0,1,4.107-4.107.614.614,0,0,1,.614.614" transform="translate(0 -25.576)" fill="#3e1c40"/>
      <path id="Trazado_982" data-name="Trazado 982" d="M9.719,54.84a.453.453,0,0,1-.453-.453V47.4a.453.453,0,1,1,.873,0v6.985a.453.453,0,0,1-.453.453" transform="translate(-6.259 -31.685)" fill="#3e1c40"/>
      <path id="Trazado_983" data-name="Trazado 983" d="M100.2,52.406h0A1.164,1.164,0,0,1,99,51.242V40.764a1.164,1.164,0,0,1,1.164-1.164,4.657,4.657,0,0,1,4.689,4.657v3.493a4.657,4.657,0,0,1-4.657,4.657" transform="translate(-66.984 -26.794)" fill="#fff"/>
      <path id="Trazado_984" data-name="Trazado 984" d="M102.492,41.5a4.624,4.624,0,0,1,.614,2.3v3.493A4.657,4.657,0,0,1,99,51.913v.614a1.164,1.164,0,0,0,1.164,1.164,4.657,4.657,0,0,0,4.657-4.657V45.542A4.657,4.657,0,0,0,102.46,41.5" transform="translate(-66.984 -28.079)" fill="#d3d2d2"/>
      <path id="Trazado_985" data-name="Trazado 985" d="M99.114,37.8A1.714,1.714,0,0,0,97.4,39.514v10.51a1.714,1.714,0,0,0,1.714,1.714,5.239,5.239,0,0,0,5.207-5.207V43.039a5.239,5.239,0,0,0-5.207-5.207m4.107,5.207v3.493a4.107,4.107,0,0,1-4.107,4.107.614.614,0,0,1-.614-.614V39.546a.614.614,0,0,1,.614-.614,4.107,4.107,0,0,1,4.107,4.107" transform="translate(-65.902 -25.576)" fill="#3e1c40"/>
      <path id="Trazado_986" data-name="Trazado 986" d="M107.119,54.84a.453.453,0,0,1-.453-.453V47.4a.453.453,0,1,1,.873,0v6.985a.453.453,0,0,1-.453.453" transform="translate(-72.16 -31.685)" fill="#3e1c40"/>
      <path id="Trazado_987" data-name="Trazado 987" d="M27.953,23.8h.032l-.485.291a1.294,1.294,0,0,0,.453-.259" transform="translate(-18.607 -16.103)" fill="#d3d2d2"/>
      <path id="Trazado_988" data-name="Trazado 988" d="M32.984,1.7A18.563,18.563,0,0,0,20.792,6.227a1.261,1.261,0,0,0-.065,1.843l.679.679a1.261,1.261,0,0,0,1.746.065,15.167,15.167,0,0,1,19.694,0,1.261,1.261,0,0,0,1.746-.065l.679-.679a1.261,1.261,0,0,0-.065-1.843A18.563,18.563,0,0,0,33.017,1.7" transform="translate(-13.775 -1.15)" fill="#fff"/>
      <path id="Trazado_989" data-name="Trazado 989" d="M48.655,6.281a18.66,18.66,0,0,0-23.155-1,19.6,19.6,0,0,1,22.573,3.46l.614-.614a1.261,1.261,0,0,0-.065-1.843" transform="translate(-17.254 -1.172)" fill="#d3d2d2"/>
      <path id="Trazado_990" data-name="Trazado 990" d="M45.055,6.006a1.811,1.811,0,0,0-.614-1.294,19.209,19.209,0,0,0-25.127,0A1.811,1.811,0,0,0,18.7,6.006a1.843,1.843,0,0,0,.55,1.358l.679.679a1.811,1.811,0,0,0,1.294.55,1.843,1.843,0,0,0,1.2-.453,14.617,14.617,0,0,1,18.983,0,1.843,1.843,0,0,0,1.2.453,1.811,1.811,0,0,0,1.294-.55l.679-.679a1.843,1.843,0,0,0,.55-1.358M20.672,7.267l-.679-.679a.744.744,0,0,1-.226-.55.679.679,0,0,1,.226-.517,18.11,18.11,0,0,1,23.672,0,.679.679,0,0,1,.226.517.744.744,0,0,1-.226.55l-.614.679a.711.711,0,0,1-.97.032,15.717,15.717,0,0,0-20.406,0,.711.711,0,0,1-.97-.032" transform="translate(-12.651 -0.023)" fill="#3e1c40"/>
      <path id="Trazado_991" data-name="Trazado 991" d="M49.371,48.152c.323-.1.485.129.582.42a11.159,11.159,0,0,0,.517,1.2.517.517,0,0,1-.065.582l-.388.485a.291.291,0,0,0-.032.356,5.045,5.045,0,0,0,2.587,2.2.291.291,0,0,0,.356-.1l.517-.647c.162-.194.259-.226.485-.129l1.455.679a.259.259,0,0,1,.162.259c0,.841-.453,1.326-1.358,1.585a1.908,1.908,0,0,1-1.1-.065A7.535,7.535,0,0,1,50.7,53.909,8.505,8.505,0,0,1,48.951,52.1a5.174,5.174,0,0,1-.841-1.455,2.134,2.134,0,0,1,.485-2.264.776.776,0,0,1,.744-.226" transform="translate(-32.458 -32.565)" fill="#3e1c40"/>
    </g>
  </g>
</svg>
